<?xml version="1.0" encoding="UTF-8"?>
<svg version="1.1" xmlns="http://www.w3.org/2000/svg" width="256" height="256">
<path d="M0 0 C1.08676025 0.00563965 2.17352051 0.0112793 3.29321289 0.01708984 C37.42305003 0.52525135 65.1320111 14.64730355 89.05859375 38.48828125 C108.95605129 59.74693307 119.29036509 87.99928051 119.25 116.875 C119.24945618 117.53413391 119.24891235 118.19326782 119.24835205 118.87237549 C119.20682297 129.8503379 118.26624935 139.87292344 114.875 150.3125 C114.66069336 150.98877441 114.44638672 151.66504883 114.22558594 152.36181641 C104.31770518 182.84261114 83.31883575 207.53252806 54.93164062 222.52270508 C43.25981664 228.30893051 29.84715507 232.87818042 16.875 234.3125 C15.96878906 234.42078125 15.06257812 234.5290625 14.12890625 234.640625 C-15.30944678 237.74369689 -46.9887268 230.1726347 -70.53515625 211.7109375 C-73.83347568 209.02132491 -76.99450968 206.19437428 -80.125 203.3125 C-80.99898437 202.52101562 -81.87296875 201.72953125 -82.7734375 200.9140625 C-104.53711655 180.24886567 -117.05652044 150.95973274 -118.25390625 121.09765625 C-118.82065898 87.50811113 -106.27373377 58.19390923 -83.60107422 33.83154297 C-62.13740537 11.74306338 -30.47061095 -0.16819989 0 0 Z " fill="#183541" transform="translate(127.125,6.6875)"/>
<path d="M0 0 C1.06686035 0.29801514 1.06686035 0.29801514 2.15527344 0.60205078 C17.45770561 4.98778435 30.99256729 11.38036102 43 22 C43.84175781 22.721875 44.68351563 23.44375 45.55078125 24.1875 C65.09896945 41.27362504 76.64972325 62.77315746 82 88 C82.1757959 88.76795898 82.3515918 89.53591797 82.53271484 90.32714844 C83.46860647 95.68040943 83.22745111 101.14231155 83.25 106.5625 C83.270625 107.77486328 83.29125 108.98722656 83.3125 110.23632812 C83.34691254 118.25875036 82.34643755 125.32629983 80 133 C63.64118362 132.32723482 47.32619787 131.22406395 31 130 C31.99 127.03 31.99 127.03 33 124 C35.475 123.505 35.475 123.505 38 123 C38.19361753 117.48190035 37.81170643 113.22197736 36 108 C35.67 107.67 35.34 107.34 35 107 C34.96261719 106.37609375 34.92523438 105.7521875 34.88671875 105.109375 C34.65277851 102.33878862 34.2907351 100.48023608 33 98 C29.21364556 95.65136275 25.2443209 94.30415347 21 93 C20.01 92.67 19.02 92.34 18 92 C16.82124202 88.74609013 16.01847055 85.45307548 15.16015625 82.1015625 C13.85972568 78.62499053 13.08128886 77.9054097 10 76 C1.87560865 73.43313079 -6.76719006 73.75697948 -15.1875 73.875 C-17.0447168 73.88853516 -17.0447168 73.88853516 -18.93945312 73.90234375 C-21.95984511 73.92566724 -24.97981399 73.95839523 -28 74 C-28 74.66 -28 75.32 -28 76 C-35.11093261 76.92751295 -39.18427753 73.79623954 -45 70 C-58.72340915 61.994678 -75.27352002 64.38878219 -90 68 C-91.21945313 68.37125 -92.43890625 68.7425 -93.6953125 69.125 C-97.4924605 70.13039143 -100.18292464 69.77899497 -104 69 C-103.7834375 69.61488281 -103.566875 70.22976562 -103.34375 70.86328125 C-103.0653125 71.67152344 -102.786875 72.47976562 -102.5 73.3125 C-102.2215625 74.11300781 -101.943125 74.91351563 -101.65625 75.73828125 C-101 78 -101 78 -101 81 C-101.99 81.33 -102.98 81.66 -104 82 C-103.54067228 84.57223523 -103.0796419 85.90504236 -101.375 87.9375 C-100 90 -100 90 -99.9375 92.375 C-101.04322572 95.10679296 -101.93124439 96.00320877 -104.0625 97.9375 C-106.65517421 100.31979015 -106.96219761 100.65977848 -107.375 104.375 C-107.25125 105.24125 -107.1275 106.1075 -107 107 C-103.24480943 106.48792856 -100.33311475 105.7824918 -97 104 C-97.44472656 104.51949219 -97.88945313 105.03898437 -98.34765625 105.57421875 C-101.92135573 109.6393006 -101.92135573 109.6393006 -102.9375 114.6875 C-102.628125 115.450625 -102.31875 116.21375 -102 117 C-101.87625 117.86625 -101.7525 118.7325 -101.625 119.625 C-100.90999147 122.3420324 -100.02843076 123.1338437 -98 125 C-97.30682482 126.31974634 -96.63673123 127.65211441 -96 129 C-100.69522982 129.43185088 -105.39086211 129.85892103 -110.08691406 130.28173828 C-111.68143185 130.42596116 -113.27583605 130.57144597 -114.87011719 130.71826172 C-117.17353419 130.93015302 -119.47733364 131.13736764 -121.78125 131.34375 C-122.48366821 131.40937134 -123.18608643 131.47499268 -123.90979004 131.54260254 C-128.62435235 131.95896293 -133.26685286 132.05568408 -138 132 C-146.00891274 109.57504434 -141.57471285 81.98230028 -131.93481445 60.68603516 C-126.36876051 49.20062048 -118.86941125 39.13818128 -110 30 C-108.99259766 28.88238281 -108.99259766 28.88238281 -107.96484375 27.7421875 C-81.75492791 -0.37835772 -36.37951345 -10.23415187 0 0 Z " fill="#F5C649" transform="translate(157,17)"/>
<path d="M0 0 C71.28 0 142.56 0 216 0 C213.74517685 9.0192926 213.74517685 9.0192926 212.51953125 11.859375 C212.24657227 12.49383545 211.97361328 13.1282959 211.69238281 13.78198242 C211.40202148 14.43142822 211.11166016 15.08087402 210.8125 15.75 C210.50280273 16.44391846 210.19310547 17.13783691 209.87402344 17.8527832 C203.75756908 31.30495473 195.84927663 43.89137238 184 53 C183.29875 53.7425 182.5975 54.485 181.875 55.25 C159.9849712 76.18828842 130.1231909 83.80264212 100.6171875 83.2421875 C78.12640876 82.48017185 53.67888626 73.39289737 37 58 C36.34 57.01 35.68 56.02 35 55 C35.66 53.68 36.32 52.36 37 51 C36.34 51 35.68 51 35 51 C34.505 51.99 34.505 51.99 34 53 C33 52 33 52 32.9375 49.4375 C32.958125 48.633125 32.97875 47.82875 33 47 C33.66 46.67 34.32 46.34 35 46 C35 46.66 35 47.32 35 48 C35.66 48 36.32 48 37 48 C36.67 47.01 36.34 46.02 36 45 C34.02 45.495 34.02 45.495 32 46 C31.67 47.98 31.34 49.96 31 52 C17.9001562 41.62929033 9.28171395 27.07308399 2.9375 11.8125 C2.63835693 11.09376709 2.33921387 10.37503418 2.03100586 9.63452148 C0.65176264 6.1659909 0 3.78447825 0 0 Z " fill="#F3F1E8" transform="translate(20,152)"/>
<path d="M0 0 C1.06686035 0.29801514 1.06686035 0.29801514 2.15527344 0.60205078 C17.45770561 4.98778435 30.99256729 11.38036102 43 22 C43.84175781 22.721875 44.68351563 23.44375 45.55078125 24.1875 C57.46850588 34.6042062 65.87807697 46.3838773 73.359375 60.24609375 C73.86936035 61.18279907 73.86936035 61.18279907 74.38964844 62.13842773 C75.14589697 64.44498575 74.77254334 65.73652314 74 68 C73.13197754 67.49025635 72.26395508 66.9805127 71.36962891 66.45532227 C68.15337559 64.566815 64.93662682 62.67915307 61.71972656 60.79174805 C60.32668718 59.97427097 58.93378282 59.15656376 57.54101562 58.33862305 C55.54071824 57.16394698 53.539939 55.99009554 51.5390625 54.81640625 C50.91504547 54.44971329 50.29102844 54.08302032 49.64810181 53.70521545 C46.36479199 51.77837425 46.36479199 51.77837425 43 50 C42.67 62.87 42.34 75.74 42 89 C41.67 89 41.34 89 41 89 C40.67 84.05 40.34 79.1 40 74 C37.03 74 34.06 74 31 74 C31 69.71 31 65.42 31 61 C32.98 60.34 34.96 59.68 37 59 C35.35 58.67 33.7 58.34 32 58 C32 53.38 32 48.76 32 44 C34.64 44 37.28 44 40 44 C40 37.73 40 31.46 40 25 C36.05448165 23.68482722 31.8231584 23.0884208 28 25 C27.67 31.93 27.34 38.86 27 46 C26.34 46 25.68 46 25 46 C24.97494385 45.10692139 24.9498877 44.21384277 24.92407227 43.29370117 C24.82889814 39.97814546 24.72966717 36.66276271 24.62768555 33.34741211 C24.58439207 31.91288997 24.54271301 30.47831816 24.50268555 29.04370117 C24.44484733 26.9808048 24.38119247 24.91815717 24.31640625 22.85546875 C24.27974854 21.61434326 24.24309082 20.37321777 24.20532227 19.09448242 C24.12855879 15.96446653 24.12855879 15.96446653 23 13 C22.01 12.505 22.01 12.505 21 12 C21.33 12.99 21.66 13.98 22 15 C19.03 14.67 16.06 14.34 13 14 C13 13.34 13 12.68 13 12 C14.98 11.67 16.96 11.34 19 11 C17.54257537 10.91903197 16.08387193 10.86082226 14.625 10.8125 C13.40683594 10.76029297 13.40683594 10.76029297 12.1640625 10.70703125 C11.44992188 10.80371094 10.73578125 10.90039062 10 11 C7.8628573 14.20571404 7.75081361 15.01852215 7.75708008 18.69921875 C7.75400345 19.65030518 7.75092682 20.6013916 7.74775696 21.58129883 C7.75494247 22.60634521 7.76212799 23.6313916 7.76953125 24.6875 C7.76998947 25.74155029 7.77044769 26.79560059 7.7709198 27.8815918 C7.77394173 30.11085129 7.78182627 32.34010868 7.79418945 34.56933594 C7.81242743 37.98640402 7.81469924 41.40320086 7.81445312 44.8203125 C7.81936909 46.98437735 7.82519775 49.14844036 7.83203125 51.3125 C7.83370049 52.85006958 7.83370049 52.85006958 7.83540344 54.41870117 C7.84178329 55.3697876 7.84816315 56.32087402 7.85473633 57.30078125 C7.85854813 58.13778564 7.86235992 58.97479004 7.86628723 59.8371582 C7.91831194 62.18341374 7.91831194 62.18341374 9 65 C4.125 64.125 4.125 64.125 3 63 C2.92755947 60.98035801 2.91622812 58.95832876 2.9375 56.9375 C2.94652344 55.83277344 2.95554688 54.72804687 2.96484375 53.58984375 C2.98224609 52.30787109 2.98224609 52.30787109 3 51 C2.38511719 50.85820313 1.77023438 50.71640625 1.13671875 50.5703125 C-1 50 -1 50 -3.1875 48.875 C-8.96836958 47.07650724 -14.57534027 48.67514583 -20 51 C-21.32 51 -22.64 51 -24 51 C-24 53.97 -24 56.94 -24 60 C-27.45615055 61.97494317 -29.08795657 62.82013593 -33 63 C-38.68198581 61.18651012 -43.86165875 57.97013945 -49 55 C-49.66 54.67 -50.32 54.34 -51 54 C-51 53.34 -51 52.68 -51 52 C-51.67417969 51.896875 -52.34835938 51.79375 -53.04296875 51.6875 C-56.65319893 50.84813341 -59.934132 49.48950807 -63.3125 48 C-64.00311523 47.69747314 -64.69373047 47.39494629 -65.40527344 47.08325195 C-72.05897334 44.09690427 -78.36902179 40.57648891 -84.671875 36.91796875 C-89.9778511 33.7103028 -89.9778511 33.7103028 -96 33 C-95.63784209 35.60196532 -95.31973855 36.72833148 -93.28515625 38.45703125 C-92.55167969 38.90433594 -91.81820312 39.35164063 -91.0625 39.8125 C-87.7091624 41.91097227 -84.49465272 44.08776471 -81.3125 46.4375 C-74.54596781 51.20700228 -66.18953114 56.4266418 -58 58 C-58 58.66 -58 59.32 -58 60 C-60.16601109 60.08213806 -62.33295925 60.13969763 -64.5 60.1875 C-66.30984375 60.23970703 -66.30984375 60.23970703 -68.15625 60.29296875 C-76.271975 59.67439215 -83.13783481 55.52456793 -90.17578125 51.69726562 C-94.27093133 49.56255973 -97.27434398 48.30844058 -102 49 C-105.01691113 50.17891251 -105.01691113 50.17891251 -108 51.9375 C-109.12019531 52.5665625 -110.24039063 53.195625 -111.39453125 53.84375 C-115.85559941 56.46949858 -120.20393114 59.2758964 -124.50585938 62.15405273 C-128.79612024 65 -128.79612024 65 -131 65 C-131.33 65.99 -131.66 66.98 -132 68 C-132.66 68 -133.32 68 -134 68 C-127.64179051 43.83880394 -106.96964533 23.3193176 -86 11 C-84.35451172 10.02933594 -84.35451172 10.02933594 -82.67578125 9.0390625 C-58.3211245 -4.16144968 -26.6159349 -7.48749761 0 0 Z " fill="#E2AF34" transform="translate(157,17)"/>
<path d="M0 0 C1.08676025 0.00563965 2.17352051 0.0112793 3.29321289 0.01708984 C37.42305003 0.52525135 65.1320111 14.64730355 89.05859375 38.48828125 C108.95605129 59.74693307 119.29036509 87.99928051 119.25 116.875 C119.24945618 117.53413391 119.24891235 118.19326782 119.24835205 118.87237549 C119.20682297 129.8503379 118.26624935 139.87292344 114.875 150.3125 C114.66069336 150.98877441 114.44638672 151.66504883 114.22558594 152.36181641 C104.31770518 182.84261114 83.31883575 207.53252806 54.93164062 222.52270508 C43.25981664 228.30893051 29.84715507 232.87818042 16.875 234.3125 C15.96878906 234.42078125 15.06257812 234.5290625 14.12890625 234.640625 C-15.30944678 237.74369689 -46.9887268 230.1726347 -70.53515625 211.7109375 C-73.83347568 209.02132491 -76.99450968 206.19437428 -80.125 203.3125 C-80.99898437 202.52101562 -81.87296875 201.72953125 -82.7734375 200.9140625 C-104.53711655 180.24886567 -117.05652044 150.95973274 -118.25390625 121.09765625 C-118.82065898 87.50811113 -106.27373377 58.19390923 -83.60107422 33.83154297 C-62.13740537 11.74306338 -30.47061095 -0.16819989 0 0 Z M-32.125 11.3125 C-33.41196222 11.68118316 -34.69973371 12.04705258 -35.98828125 12.41015625 C-63.55645955 20.71721713 -85.37969023 41.10567234 -99.15234375 65.9140625 C-103.11368689 73.46825174 -106.02198239 81.05191813 -108.125 89.3125 C-108.37725342 90.23643555 -108.62950684 91.16037109 -108.8894043 92.11230469 C-110.99584011 100.32871272 -111.55333309 107.9770512 -111.4375 116.4375 C-111.44072266 117.62214844 -111.44394531 118.80679688 -111.44726562 120.02734375 C-111.40300584 127.32618452 -110.70929316 134.18635482 -109.125 141.3125 C-107.145 141.9725 -105.165 142.6325 -103.125 143.3125 C-103.125 143.6425 -103.125 143.9725 -103.125 144.3125 C-39.105 144.3125 24.915 144.3125 90.875 144.3125 C90.875 143.9825 90.875 143.6525 90.875 143.3125 C97.145 143.3125 103.415 143.3125 109.875 143.3125 C112.37350131 134.57768641 113.39157855 126.75705677 113.3125 117.6875 C113.30492676 116.46200439 113.29735352 115.23650879 113.28955078 113.97387695 C112.78744867 86.11087455 100.94901771 59.57074277 81.5625 39.5625 C68.43830063 27.02732501 54.44246369 18.30038912 37.25 12.4375 C36.41597656 12.15108643 35.58195313 11.86467285 34.72265625 11.56958008 C13.75121901 4.7917779 -11.14922748 4.5710768 -32.125 11.3125 Z M-107.125 145.3125 C-103.77028225 165.44080652 -91.51664341 183.28652448 -77.125 197.3125 C-76.795 197.3125 -76.465 197.3125 -76.125 197.3125 C-75.465 195.0025 -74.805 192.6925 -74.125 190.3125 C-73.135 190.3125 -72.145 190.3125 -71.125 190.3125 C-70.795 191.3025 -70.465 192.2925 -70.125 193.3125 C-70.785 193.3125 -71.445 193.3125 -72.125 193.3125 C-72.455 192.6525 -72.785 191.9925 -73.125 191.3125 C-74.42133621 192.37895115 -74.42133621 192.37895115 -74.1875 194.875 C-74.166875 195.679375 -74.14625 196.48375 -74.125 197.3125 C-73.135 197.8075 -73.135 197.8075 -72.125 198.3125 C-72.125 197.6525 -72.125 196.9925 -72.125 196.3125 C-71.465 196.3125 -70.805 196.3125 -70.125 196.3125 C-70.785 197.9625 -71.445 199.6125 -72.125 201.3125 C-53.63416402 219.68518368 -26.49873201 228.39679324 -0.9375 228.625 C32.14909242 228.49202599 60.56771063 215.53998678 83.9609375 192.234375 C93.989156 181.53232364 108.875 160.67166398 108.875 145.3125 C37.595 145.3125 -33.685 145.3125 -107.125 145.3125 Z " fill="#16333E" transform="translate(127.125,6.6875)"/>
<path d="M0 0 C1.06686035 0.29801514 1.06686035 0.29801514 2.15527344 0.60205078 C17.45770561 4.98778435 30.99256729 11.38036102 43 22 C43.84175781 22.721875 44.68351563 23.44375 45.55078125 24.1875 C57.46850588 34.6042062 65.87807697 46.3838773 73.359375 60.24609375 C73.86936035 61.18279907 73.86936035 61.18279907 74.38964844 62.13842773 C75.14589697 64.44498575 74.77254334 65.73652314 74 68 C73.13197754 67.49025635 72.26395508 66.9805127 71.36962891 66.45532227 C68.15337559 64.566815 64.93662682 62.67915307 61.71972656 60.79174805 C60.32668718 59.97427097 58.93378282 59.15656376 57.54101562 58.33862305 C55.54071824 57.16394698 53.539939 55.99009554 51.5390625 54.81640625 C50.91504547 54.44971329 50.29102844 54.08302032 49.64810181 53.70521545 C46.36479199 51.77837425 46.36479199 51.77837425 43 50 C42.67 62.87 42.34 75.74 42 89 C41.67 89 41.34 89 41 89 C40.67 84.05 40.34 79.1 40 74 C37.03 74 34.06 74 31 74 C31 69.71 31 65.42 31 61 C32.98 60.34 34.96 59.68 37 59 C35.35 58.67 33.7 58.34 32 58 C32 53.38 32 48.76 32 44 C34.64 44 37.28 44 40 44 C40 37.73 40 31.46 40 25 C36.05448165 23.68482722 31.8231584 23.0884208 28 25 C27.67 31.93 27.34 38.86 27 46 C26.34 46 25.68 46 25 46 C24.97494385 45.10692139 24.9498877 44.21384277 24.92407227 43.29370117 C24.82889814 39.97814546 24.72966717 36.66276271 24.62768555 33.34741211 C24.58439207 31.91288997 24.54271301 30.47831816 24.50268555 29.04370117 C24.44484733 26.9808048 24.38119247 24.91815717 24.31640625 22.85546875 C24.27974854 21.61434326 24.24309082 20.37321777 24.20532227 19.09448242 C24.12855879 15.96446653 24.12855879 15.96446653 23 13 C22.01 12.505 22.01 12.505 21 12 C21.33 12.99 21.66 13.98 22 15 C19.03 14.67 16.06 14.34 13 14 C13 13.34 13 12.68 13 12 C14.98 11.67 16.96 11.34 19 11 C17.54257537 10.91903197 16.08387193 10.86082226 14.625 10.8125 C13.40683594 10.76029297 13.40683594 10.76029297 12.1640625 10.70703125 C11.44992188 10.80371094 10.73578125 10.90039062 10 11 C7.91254955 14.13117567 7.72346004 15.06946224 7.5859375 18.66796875 C7.54726562 19.56064453 7.50859375 20.45332031 7.46875 21.37304688 C7.4378125 22.30181641 7.406875 23.23058594 7.375 24.1875 C7.33632812 25.12787109 7.29765625 26.06824219 7.2578125 27.03710938 C7.16356813 29.3578771 7.07795975 31.67863748 7 34 C2.74004733 32.49226394 -0.87613141 30.2879039 -4.625 27.8125 C-5.23674072 27.41611328 -5.84848145 27.01972656 -6.47875977 26.61132812 C-9.37770054 24.73174951 -12.25452776 22.8272277 -15.11328125 20.88671875 C-16.04527344 20.26410156 -16.97726563 19.64148438 -17.9375 19 C-18.75089844 18.443125 -19.56429687 17.88625 -20.40234375 17.3125 C-23.72611562 15.63312053 -26.27422209 15.13349693 -30 15 C-33.40537485 16.14823349 -33.40537485 16.14823349 -36.625 17.9375 C-43.89600957 21.72844204 -43.89600957 21.72844204 -48 21 C-51.08421048 19.13245738 -53.88486488 17.00829804 -56.76953125 14.84765625 C-60.59273958 12.6609845 -63.57503477 11.48123263 -68 12 C-70.98149489 13.33715748 -73.43202427 15.18377675 -76 17.1875 C-82.74763126 22.25481293 -89.21505005 26.25607334 -97.3125 28.8125 C-103.47836159 30.96277946 -108.64545043 34.31292138 -114 38 C-114.495 36.515 -114.495 36.515 -115 35 C-106.12182115 25.50623093 -97.24488711 17.56505634 -86 11 C-84.35644531 10.03126953 -84.35644531 10.03126953 -82.6796875 9.04296875 C-58.33180585 -4.16705215 -26.6117047 -7.48630759 0 0 Z " fill="#FAF7EC" transform="translate(157,17)"/>
<path d="M0 0 C1.20076172 0.06960937 1.20076172 0.06960937 2.42578125 0.140625 C3.23402344 0.17671875 4.04226562 0.2128125 4.875 0.25 C5.79732422 0.31960937 5.79732422 0.31960937 6.73828125 0.390625 C7.23328125 1.380625 7.23328125 1.380625 7.73828125 2.390625 C5.42828125 2.390625 3.11828125 2.390625 0.73828125 2.390625 C0.73828125 3.050625 0.73828125 3.710625 0.73828125 4.390625 C3.37828125 4.390625 6.01828125 4.390625 8.73828125 4.390625 C8.73828125 3.730625 8.73828125 3.070625 8.73828125 2.390625 C9.72828125 2.720625 10.71828125 3.050625 11.73828125 3.390625 C12.89755653 6.86845083 12.85141191 9.57865757 12.8359375 13.24609375 C12.83452255 13.90773026 12.8331076 14.56936676 12.83164978 15.25105286 C12.82606121 17.36012328 12.8135109 19.46908677 12.80078125 21.578125 C12.79576477 23.00976409 12.79120212 24.44140485 12.78710938 25.87304688 C12.77609555 29.37894088 12.7588388 32.8847725 12.73828125 36.390625 C13.39828125 36.390625 14.05828125 36.390625 14.73828125 36.390625 C14.7225708 35.76494629 14.70686035 35.13926758 14.69067383 34.49462891 C14.6284345 31.66838569 14.58932663 28.84228639 14.55078125 26.015625 C14.52564453 25.03078125 14.50050781 24.0459375 14.47460938 23.03125 C14.46494141 22.09023438 14.45527344 21.14921875 14.4453125 20.1796875 C14.42960205 19.31037598 14.4138916 18.44106445 14.39770508 17.54541016 C14.51009521 16.83433105 14.62248535 16.12325195 14.73828125 15.390625 C18.43954984 12.92311261 20.36051657 13.08341344 24.73828125 13.390625 C26.05828125 14.050625 27.37828125 14.710625 28.73828125 15.390625 C28.73828125 26.610625 28.73828125 37.830625 28.73828125 49.390625 C28.40828125 49.390625 28.07828125 49.390625 27.73828125 49.390625 C27.73828125 44.440625 27.73828125 39.490625 27.73828125 34.390625 C25.09828125 34.390625 22.45828125 34.390625 19.73828125 34.390625 C19.73828125 39.010625 19.73828125 43.630625 19.73828125 48.390625 C21.38828125 48.390625 23.03828125 48.390625 24.73828125 48.390625 C25.06828125 49.050625 25.39828125 49.710625 25.73828125 50.390625 C23.75828125 50.720625 21.77828125 51.050625 19.73828125 51.390625 C19.40828125 55.680625 19.07828125 59.970625 18.73828125 64.390625 C21.70828125 64.390625 24.67828125 64.390625 27.73828125 64.390625 C27.73828125 60.100625 27.73828125 55.810625 27.73828125 51.390625 C28.06828125 51.390625 28.39828125 51.390625 28.73828125 51.390625 C28.73828125 60.630625 28.73828125 69.870625 28.73828125 79.390625 C30.71828125 80.050625 32.69828125 80.710625 34.73828125 81.390625 C37.76981171 82.66071574 40.74531902 84.03018762 43.73828125 85.390625 C43.73828125 89.020625 43.73828125 92.650625 43.73828125 96.390625 C41.48799796 96.24923019 39.23805919 96.10234497 36.98828125 95.953125 C35.7353125 95.87191406 34.48234375 95.79070312 33.19140625 95.70703125 C30.55510572 95.46546978 28.25790831 95.14778566 25.73828125 94.390625 C25.15234375 91.36328125 25.15234375 91.36328125 24.56640625 88.3359375 C23.89770345 86.2730485 23.89770345 86.2730485 22.0390625 85.25390625 C20.32197456 84.60963386 18.57982995 84.03142735 16.828125 83.48828125 C13.49050562 82.3922848 10.69208449 81.30441671 7.73828125 79.390625 C6.39755038 76.57805077 5.8914774 74.04354283 5.328125 70.98828125 C4.62716525 67.90127308 3.47995058 66.02921111 0.8046875 64.25 C-8.07988959 60.55509081 -18.5650953 61.2057693 -28.01171875 61.140625 C-29.08405762 61.13119873 -30.15639648 61.12177246 -31.26123047 61.11206055 C-32.76967529 61.11846558 -32.76967529 61.11846558 -34.30859375 61.125 C-35.21448242 61.12725586 -36.12037109 61.12951172 -37.05371094 61.13183594 C-39.46792101 61.18350283 -39.46792101 61.18350283 -41.26171875 63.390625 C-44.57374066 64.02148632 -46.5496633 63.83117729 -49.43359375 62.046875 C-51.42799036 60.54754138 -53.36343228 59.00946829 -55.26171875 57.390625 C-54.26171875 55.390625 -54.26171875 55.390625 -52.58764648 54.70458984 C-51.88067627 54.50559082 -51.17370605 54.3065918 -50.4453125 54.1015625 C-49.68154297 53.88242188 -48.91777344 53.66328125 -48.13085938 53.4375 C-47.32841797 53.21578125 -46.52597656 52.9940625 -45.69921875 52.765625 C-44.48975586 52.42144531 -44.48975586 52.42144531 -43.25585938 52.0703125 C-41.25979672 51.50338346 -39.26099956 50.94609857 -37.26171875 50.390625 C-36.93171875 47.420625 -36.60171875 44.450625 -36.26171875 41.390625 C-34.39083095 40.71250386 -32.51477582 40.0486304 -30.63671875 39.390625 C-29.59257812 39.019375 -28.5484375 38.648125 -27.47265625 38.265625 C-20.12100402 36.26225505 -15.86312203 38.18994462 -9.26171875 41.390625 C-8.76671875 47.330625 -8.76671875 47.330625 -8.26171875 53.390625 C-6.61171875 54.050625 -4.96171875 54.710625 -3.26171875 55.390625 C-3.92171875 54.400625 -4.58171875 53.410625 -5.26171875 52.390625 C-5.52241516 50.23451233 -5.52241516 50.23451233 -5.53637695 47.70727539 C-5.55067497 46.28548729 -5.55067497 46.28548729 -5.56526184 44.8349762 C-5.56435043 43.81306686 -5.56343903 42.79115753 -5.5625 41.73828125 C-5.56678513 40.68660263 -5.57107025 39.63492401 -5.57548523 38.55137634 C-5.58123043 36.32633179 -5.5817274 34.10126845 -5.57739258 31.8762207 C-5.57423429 28.46988911 -5.59768426 25.06442719 -5.62304688 21.65820312 C-5.62531998 19.49739693 -5.62602331 17.3365884 -5.625 15.17578125 C-5.63420975 14.15589615 -5.64341949 13.13601105 -5.65290833 12.08522034 C-5.64667953 11.13420944 -5.64045074 10.18319855 -5.6340332 9.20336914 C-5.63466263 8.36858536 -5.63529205 7.53380157 -5.63594055 6.67372131 C-5.05010506 3.09958736 -3.67977333 0.63553944 0 0 Z " fill="#223B46" transform="translate(169.26171875,26.609375)"/>
<path d="M0 0 C2.90141517 1.11047649 5.31029495 2.40610071 8 4 C3.75534481 8.06779455 -1.442305 7.94671469 -7 8.0625 C-7.66 8.041875 -8.32 8.02125 -9 8 C-9.88668128 11.2511647 -9.95427192 13.29977294 -9.4375 16.6875 C-9.293125 17.780625 -9.14875 18.87375 -9 20 C-9.66 20.66 -10.32 21.32 -11 22 C-11.50059916 24.41482413 -11.50059916 24.41482413 -11 27 C-9.68733482 28.35368596 -8.35432675 29.68799596 -7 31 C-7 32.32 -7 33.64 -7 35 C-8.53125 36.45703125 -8.53125 36.45703125 -10.5 37.8125 C-13.50694142 40.2217127 -13.92908663 40.62609315 -14.6875 44.625 C-13.89530477 48.51395842 -12.76511768 49.32129224 -10 52 C-9.95556653 53.99950636 -9.96079185 56.00038436 -10 58 C-9.22763848 60.52961358 -8.21218313 62.62225616 -7 65 C-6.01 65.495 -6.01 65.495 -5 66 C-4.375 68.0625 -4.375 68.0625 -4 70 C-8.12545042 70.43248216 -12.2514199 70.85951303 -16.37792969 71.28173828 C-17.778471 71.42578844 -19.17886627 71.57126661 -20.57910156 71.71826172 C-34.898355 73.21963851 -34.898355 73.21963851 -42 73 C-48.41187132 55.0467603 -46.33682481 33.01178374 -41 15 C-40.01 15 -39.02 15 -38 15 C-35.47102891 13.87177999 -33.02413774 12.69787689 -30.5625 11.4375 C-29.84819824 11.07978516 -29.13389648 10.72207031 -28.39794922 10.35351562 C-23.98388019 8.11439494 -19.80467148 5.6578145 -15.625 3 C-10.31561343 -0.14390506 -6.09651906 -1.33552508 0 0 Z " fill="#F6C74A" transform="translate(61,76)"/>
<path d="M0 0 C4.96375094 0.52966855 8.71605785 2.19899661 13 4.625 C14.32603759 5.3529948 15.65288032 6.0795247 16.98046875 6.8046875 C17.64868652 7.17174805 18.3169043 7.53880859 19.00537109 7.91699219 C27.42696012 12.48959548 36.00831588 16.66437525 45 20 C45 20.66 45 21.32 45 22 C46.28777344 22.39832031 46.28777344 22.39832031 47.6015625 22.8046875 C51.02910808 24.01023801 54.14173798 25.47244386 57.375 27.125 C58.43460937 27.66382812 59.49421875 28.20265625 60.5859375 28.7578125 C61.38257812 29.16773437 62.17921875 29.57765625 63 30 C60.01353231 31.99097846 57.40312738 32.94124926 54 34 C54.78375 34.61875 55.5675 35.2375 56.375 35.875 C59 38 59 38 61 40 C64 40.33333333 64 40.33333333 67 40 C67.99 39.01 67.99 39.01 69 38 C71.20800781 37.74121094 71.20800781 37.74121094 73.953125 37.734375 C74.95867432 37.73002441 75.96422363 37.72567383 77.00024414 37.72119141 C78.07266357 37.73069824 79.14508301 37.74020508 80.25 37.75 C81.33724365 37.75821777 82.4244873 37.76643555 83.54467773 37.77490234 C106.82583152 38.09726478 106.82583152 38.09726478 112.77734375 44.01953125 C114.31330848 46.50749968 114.70310882 48.76051403 115.25 51.625 C115.75782795 54.51243739 115.75782795 54.51243739 117 57 C119.72519876 58.58462036 122.30154946 59.354527 125.33203125 60.19921875 C129.07808415 61.32358309 130.7893725 62.7910246 133 66 C133.6786926 68.23842094 134.13565529 70.43708753 134.53125 72.7421875 C134.96889177 75.28112403 134.96889177 75.28112403 136.625 78.5 C138.31115867 82.79204025 138.80928626 86.44336647 138 91 C136.1875 93.5625 136.1875 93.5625 134 95 C133.01 95 132.02 95 131 95 C131 95.66 131 96.32 131 97 C130.01 97 129.02 97 128 97 C128.33 95.35 128.66 93.7 129 92 C131.475 91.505 131.475 91.505 134 91 C134.19361753 85.48190035 133.81170643 81.22197736 132 76 C131.67 75.67 131.34 75.34 131 75 C130.96261719 74.37609375 130.92523438 73.7521875 130.88671875 73.109375 C130.65277851 70.33878862 130.2907351 68.48023608 129 66 C125.21364556 63.65136275 121.2443209 62.30415347 117 61 C116.01 60.67 115.02 60.34 114 60 C112.82124202 56.74609013 112.01847055 53.45307548 111.16015625 50.1015625 C109.85972568 46.62499053 109.08128886 45.9054097 106 44 C97.87560865 41.43313079 89.23280994 41.75697948 80.8125 41.875 C78.9552832 41.88853516 78.9552832 41.88853516 77.06054688 41.90234375 C74.04015489 41.92566724 71.02018601 41.95839523 68 42 C68 42.66 68 43.32 68 44 C60.88906739 44.92751295 56.81572247 41.79623954 51 38 C37.27659085 29.994678 20.72647998 32.38878219 6 36 C4.78054687 36.37125 3.56109375 36.7425 2.3046875 37.125 C-1.4924605 38.13039143 -4.18292464 37.77899497 -8 37 C-7.7834375 37.61488281 -7.566875 38.22976562 -7.34375 38.86328125 C-7.0653125 39.67152344 -6.786875 40.47976562 -6.5 41.3125 C-6.2215625 42.11300781 -5.943125 42.91351563 -5.65625 43.73828125 C-5 46 -5 46 -5 49 C-5.99 49.33 -6.98 49.66 -8 50 C-7.54067228 52.57223523 -7.0796419 53.90504236 -5.375 55.9375 C-4 58 -4 58 -3.9375 60.375 C-5.04322572 63.10679296 -5.93124439 64.00320877 -8.0625 65.9375 C-10.65517421 68.31979015 -10.96219761 68.65977848 -11.375 72.375 C-11.25125 73.24125 -11.1275 74.1075 -11 75 C-7.24480943 74.48792856 -4.33311475 73.7824918 -1 72 C-1.44472656 72.51949219 -1.88945313 73.03898437 -2.34765625 73.57421875 C-5.92135573 77.6393006 -5.92135573 77.6393006 -6.9375 82.6875 C-6.628125 83.450625 -6.31875 84.21375 -6 85 C-5.87625 85.86625 -5.7525 86.7325 -5.625 87.625 C-4.90999147 90.3420324 -4.02843076 91.1338437 -2 93 C-0.8125 95.1875 -0.8125 95.1875 0 97 C-1.65 96.67 -3.3 96.34 -5 96 C-5 95.01 -5 94.02 -5 93 C-5.61875 92.79375 -6.2375 92.5875 -6.875 92.375 C-9 91 -9 91 -10.3125 88.25 C-11.0474181 84.77584169 -10.81646161 82.42913878 -10 79 C-10.639375 78.71125 -11.27875 78.4225 -11.9375 78.125 C-14 77 -14 77 -15 75 C-15.45811042 71.59689403 -15.78070456 69.10259505 -13.73046875 66.20703125 C-12.21595161 64.65566455 -10.77059226 63.25225826 -9 62 C-8.34 62 -7.68 62 -7 62 C-8.23794673 58.39153224 -8.23794673 58.39153224 -10.625 55.5 C-12 54 -12 54 -12.3125 51.4375 C-12 49 -12 49 -10 47 C-10.0549973 44.38795556 -10.0549973 44.38795556 -10.5 41.5 C-10.90625 38.53125 -10.90625 38.53125 -11 36 C-10.34 35.34 -9.68 34.68 -9 34 C-7.05848197 34 -5.11646924 34.00573399 -3.17578125 34.0625 C0.11898193 33.96785689 2.88341564 33.03886145 6 32 C1.42999465 28.49632923 -1.34492769 27.51063692 -7.11181641 27.57177734 C-12.61734969 28.38806689 -17.0188109 31.42790614 -21.6875 34.3125 C-23.66872785 35.49917963 -25.65175807 36.68285613 -27.63671875 37.86328125 C-28.55759277 38.4145166 -29.4784668 38.96575195 -30.42724609 39.53369141 C-33.54353353 41.30978007 -36.65879108 42.70557361 -40 44 C-39.82924988 39.64587198 -39.65842781 37.62145994 -36.42578125 34.5703125 C-32.8866613 31.80603257 -29.13633243 29.41017666 -25.3125 27.0625 C-24.61205566 26.6308252 -23.91161133 26.19915039 -23.18994141 25.75439453 C-21.13184376 24.49407494 -19.06750631 23.24481216 -17 22 C-15.91847656 21.34644531 -14.83695313 20.69289063 -13.72265625 20.01953125 C-12.78292969 19.47683594 -11.84320313 18.93414062 -10.875 18.375 C-10.06804688 17.90835938 -9.26109375 17.44171875 -8.4296875 16.9609375 C-4.79118053 15.52191384 -1.86307136 15.28294161 1.84716797 16.7109375 C3.89266909 17.68649204 5.8841688 18.72986703 7.875 19.8125 C15.70565653 23.98432376 22.48461919 27.25406823 31.5 27.6875 C32.7271875 27.75324219 33.954375 27.81898437 35.21875 27.88671875 C36.1365625 27.92410156 37.054375 27.96148437 38 28 C38 27.34 38 26.68 38 26 C37.18015625 25.91878906 36.3603125 25.83757812 35.515625 25.75390625 C31.13718265 24.81497361 27.66845826 23.05457964 23.75 20.9375 C23.00000732 20.53700439 22.25001465 20.13650879 21.47729492 19.72387695 C16.23415169 16.85137904 11.57658102 13.62648221 7.02734375 9.73046875 C4.48591867 7.56119841 1.82135193 5.78190648 -1 4 C-0.67 2.68 -0.34 1.36 0 0 Z " fill="#F5C74A" transform="translate(61,49)"/>
<path d="M0 0 C4.64415522 -0.4807549 6.67561691 0.84671619 10.359375 3.5859375 C17.26882121 8.3845162 24.47266071 11.49766254 32.25 14.625 C33.62479107 15.18881847 34.99921953 15.75352189 36.37329102 16.3190918 C45.51103571 20.06434294 54.692375 23.69632111 64 27 C62.94941406 26.35933594 61.89882812 25.71867187 60.81640625 25.05859375 C40.87029181 12.80543771 40.87029181 12.80543771 37 7 C36.875 4.3125 36.875 4.3125 37 2 C41.71509226 2.48987972 44.66526737 4.69435612 48.3125 7.5 C55.81248054 13.08275349 63.77666697 17.57862354 72 22 C72 26.95 72 31.9 72 37 C71.01 37.495 71.01 37.495 70 38 C69.67 37.01 69.34 36.02 69 35 C64.03032117 31.5833458 59.17559951 30.41652469 53.27734375 31.453125 C47.46027512 32.73437499 47.46027512 32.73437499 42 35 C41.29103396 36.31133115 40.61928115 37.64400845 40 39 C27.49843127 32.67373965 15.62226501 25.8275434 4 18 C5.32 19.65 6.64 21.3 8 23 C7.01 23.33 6.02 23.66 5 24 C2.84375 22.890625 2.84375 22.890625 0.5 21.25 C-0.2734375 20.71890625 -1.046875 20.1878125 -1.84375 19.640625 C-3.75730378 18.18466017 -5.455953 16.84193388 -7 15 C-6.88582512 10.54717954 -5.01630589 9.01630589 -2 6 C-0.73215876 2.86649283 -0.73215876 2.86649283 0 0 Z " fill="#F5C748" transform="translate(91,34)"/>
<path d="M0 0 C4.84317655 1.35345568 8.60370584 3.4946464 12.625 6.4375 C13.22965088 6.87562012 13.83430176 7.31374023 14.45727539 7.76513672 C20.73222288 12.4013932 26.44638707 17.52964963 32 23 C32.64324219 23.63035156 33.28648437 24.26070312 33.94921875 24.91015625 C41.0918189 32.48564126 46.43905118 42.12401376 51.36328125 51.25 C51.70270752 51.87390625 52.04213379 52.4978125 52.3918457 53.140625 C53.14569215 55.44544015 52.77141894 56.73858865 52 59 C51.13197754 58.49025635 50.26395508 57.9805127 49.36962891 57.45532227 C46.15337559 55.566815 42.93662682 53.67915307 39.71972656 51.79174805 C38.32668718 50.97427097 36.93378282 50.15656376 35.54101562 49.33862305 C33.54071824 48.16394698 31.539939 46.99009554 29.5390625 45.81640625 C28.91504547 45.44971329 28.29102844 45.08302032 27.64810181 44.70521545 C24.36479199 42.77837425 24.36479199 42.77837425 21 41 C20.67 53.87 20.34 66.74 20 80 C19.67 80 19.34 80 19 80 C18.67 75.05 18.34 70.1 18 65 C15.03 65 12.06 65 9 65 C9 60.71 9 56.42 9 52 C10.98 51.34 12.96 50.68 15 50 C13.35 49.67 11.7 49.34 10 49 C10 44.38 10 39.76 10 35 C12.64 35 15.28 35 18 35 C18 28.73 18 22.46 18 16 C14.05448165 14.68482722 9.8231584 14.0884208 6 16 C5.67 22.93 5.34 29.86 5 37 C4.34 37 3.68 37 3 37 C2.97494385 36.10692139 2.9498877 35.21384277 2.92407227 34.29370117 C2.82889814 30.97814546 2.72966717 27.66276271 2.62768555 24.34741211 C2.58439207 22.91288997 2.54271301 21.47831816 2.50268555 20.04370117 C2.44484733 17.9808048 2.38119247 15.91815717 2.31640625 13.85546875 C2.27974854 12.61434326 2.24309082 11.37321777 2.20532227 10.09448242 C2.12855879 6.96446653 2.12855879 6.96446653 1 4 C0.34 3.67 -0.32 3.34 -1 3 C-0.67 3.99 -0.34 4.98 0 6 C-2.97 5.67 -5.94 5.34 -9 5 C-9 4.34 -9 3.68 -9 3 C-4.545 2.505 -4.545 2.505 0 2 C0 1.34 0 0.68 0 0 Z " fill="#F7F4EA" transform="translate(179,26)"/>
<path d="M0 0 C1.24511353 0.01377686 1.24511353 0.01377686 2.51538086 0.02783203 C3.78466431 0.03580811 3.78466431 0.03580811 5.07958984 0.04394531 C25.9029519 0.35290307 25.9029519 0.35290307 29.82788086 4.27783203 C27.26507878 4.13629067 24.70272601 3.98974641 22.14038086 3.84033203 C21.41915039 3.80101563 20.69791992 3.76169922 19.95483398 3.72119141 C16.16080804 3.49597525 12.54136594 3.14943898 8.82788086 2.27783203 C9.04444336 3.10927734 9.26100586 3.94072266 9.48413086 4.79736328 C9.76256836 5.88404297 10.04100586 6.97072266 10.32788086 8.09033203 C10.60631836 9.16927734 10.88475586 10.24822266 11.17163086 11.35986328 C11.82788086 14.27783203 11.82788086 14.27783203 11.82788086 17.27783203 C13.31674805 17.225625 13.31674805 17.225625 14.83569336 17.17236328 C26.00763546 16.90395997 36.39896893 17.82764698 46.82788086 22.27783203 C46.82788086 22.60783203 46.82788086 22.93783203 46.82788086 23.27783203 C43.85788086 23.60783203 40.88788086 23.93783203 37.82788086 24.27783203 C37.49788086 29.22783203 37.16788086 34.17783203 36.82788086 39.27783203 C36.49788086 39.27783203 36.16788086 39.27783203 35.82788086 39.27783203 C35.51850586 38.30845703 35.20913086 37.33908203 34.89038086 36.34033203 C34.13264744 33.43717411 34.13264744 33.43717411 32.82788086 32.27783203 C31.30860048 32.20603239 29.78620604 32.19391196 28.26538086 32.21533203 C27.4390918 32.22435547 26.61280273 32.23337891 25.76147461 32.24267578 C25.12338867 32.25427734 24.48530273 32.26587891 23.82788086 32.27783203 C24.48788086 34.25783203 25.14788086 36.23783203 25.82788086 38.27783203 C28.79788086 38.60783203 31.76788086 38.93783203 34.82788086 39.27783203 C34.82788086 39.60783203 34.82788086 39.93783203 34.82788086 40.27783203 C30.53788086 40.27783203 26.24788086 40.27783203 21.82788086 40.27783203 C21.16788086 38.62783203 20.50788086 36.97783203 19.82788086 35.27783203 C16.23523634 34.08028386 13.60070612 33.94688245 9.82788086 34.27783203 C6.43711451 36.47724804 5.54874537 38.75150385 4.57788086 42.52783203 C4.33038086 43.76533203 4.08288086 45.00283203 3.82788086 46.27783203 C3.49788086 46.27783203 3.16788086 46.27783203 2.82788086 46.27783203 C2.35518299 40.48728316 3.18868698 36.73308756 6.82788086 32.27783203 C8.7594219 30.67606629 10.63210341 29.52543286 12.82788086 28.27783203 C11.83788086 27.94783203 10.84788086 27.61783203 9.82788086 27.27783203 C9.79049805 26.46701172 9.75311523 25.65619141 9.71459961 24.82080078 C9.26424251 17.23537427 8.05557745 10.54206003 5.82788086 3.27783203 C2.19788086 2.94783203 -1.43211914 2.61783203 -5.17211914 2.27783203 C-5.17211914 2.93783203 -5.17211914 3.59783203 -5.17211914 4.27783203 C-1.87211914 4.27783203 1.42788086 4.27783203 4.82788086 4.27783203 C7.29271838 10.02911958 8.17355689 15.22130185 8.26538086 21.46533203 C8.28729492 22.14208984 8.30920898 22.81884766 8.33178711 23.51611328 C8.318465 26.91325073 7.71764907 29.57886259 6.55053711 32.76611328 C3.22336312 35.83551482 1.9940556 35.64339785 -2.42211914 35.65283203 C-4.34043819 35.55645715 -6.25826678 35.44032893 -8.17211914 35.27783203 C-8.22149193 30.61476189 -8.25782541 25.9518433 -8.28198242 21.28857422 C-8.29205102 19.7016332 -8.30570681 18.11471078 -8.32299805 16.52783203 C-8.34720915 14.24913956 -8.35859336 11.97069198 -8.36743164 9.69189453 C-8.37775421 8.98038239 -8.38807678 8.26887024 -8.39871216 7.53579712 C-8.39911336 5.78151538 -8.29414123 4.02786494 -8.17211914 2.27783203 C-5.53279454 -0.36149257 -3.59361888 0.01868368 0 0 Z " fill="#DADAD2" transform="translate(138.172119140625,91.72216796875)"/>
<path d="M0 0 C2.90141517 1.11047649 5.31029495 2.40610071 8 4 C3.75534481 8.06779455 -1.442305 7.94671469 -7 8.0625 C-7.66 8.041875 -8.32 8.02125 -9 8 C-9.165 9.06476563 -9.33 10.12953125 -9.5 11.2265625 C-10.18422887 13.61774967 -10.67713416 14.74066458 -12.6328125 16.31152344 C-14.71830609 17.44934421 -16.81906459 18.43323244 -19 19.375 C-20.10601562 19.88740234 -20.10601562 19.88740234 -21.234375 20.41015625 C-23.14721591 21.29327441 -25.0728479 22.14856427 -27 23 C-27.66 23.33 -28.32 23.66 -29 24 C-29.33 25.32 -29.66 26.64 -30 28 C-24.06 28.99 -24.06 28.99 -18 30 C-20.14081083 34.28162167 -20.37040147 34.54791987 -24.5 36.140625 C-25.386875 36.48867187 -26.27375 36.83671875 -27.1875 37.1953125 C-28.5796875 37.71738281 -28.5796875 37.71738281 -30 38.25 C-30.928125 38.61351562 -31.85625 38.97703125 -32.8125 39.3515625 C-39.66259398 42 -39.66259398 42 -42 42 C-43.23759823 45.71279469 -43.35608897 49.31306346 -43.5625 53.1875 C-43.60568359 53.93708984 -43.64886719 54.68667969 -43.69335938 55.45898438 C-43.79922685 57.30578375 -43.9000976 59.15286834 -44 61 C-44.33 61 -44.66 61 -45 61 C-45.44058226 45.14242773 -45.53235982 30.29671438 -41 15 C-40.01 15 -39.02 15 -38 15 C-35.47102891 13.87177999 -33.02413774 12.69787689 -30.5625 11.4375 C-29.84819824 11.07978516 -29.13389648 10.72207031 -28.39794922 10.35351562 C-23.98388019 8.11439494 -19.80467148 5.6578145 -15.625 3 C-10.31561343 -0.14390506 -6.09651906 -1.33552508 0 0 Z " fill="#E1AE34" transform="translate(61,76)"/>
<path d="M0 0 C0.598125 0.45117188 1.19625 0.90234375 1.8125 1.3671875 C4.59147516 3.80736431 4.59147516 3.80736431 8.0625 3.9921875 C10.89438548 3.7998385 10.89438548 3.7998385 12.75 1.5546875 C14.95800781 1.29589844 14.95800781 1.29589844 17.703125 1.2890625 C18.70867432 1.28471191 19.71422363 1.28036133 20.75024414 1.27587891 C21.82266357 1.28538574 22.89508301 1.29489258 24 1.3046875 C25.08724365 1.31290527 26.1744873 1.32112305 27.29467773 1.32958984 C50.57583152 1.65195228 50.57583152 1.65195228 56.52734375 7.57421875 C58.06330848 10.06218718 58.45310882 12.31520153 59 15.1796875 C59.50782795 18.06712489 59.50782795 18.06712489 60.75 20.5546875 C63.47519876 22.13930786 66.05154946 22.9092145 69.08203125 23.75390625 C72.82808415 24.87827059 74.5393725 26.3457121 76.75 29.5546875 C77.4286926 31.79310844 77.88565529 33.99177503 78.28125 36.296875 C78.71889177 38.83581153 78.71889177 38.83581153 80.375 42.0546875 C82.06115867 46.34672775 82.55928626 49.99805397 81.75 54.5546875 C79.9375 57.1171875 79.9375 57.1171875 77.75 58.5546875 C76.76 58.5546875 75.77 58.5546875 74.75 58.5546875 C74.75 59.2146875 74.75 59.8746875 74.75 60.5546875 C73.76 60.5546875 72.77 60.5546875 71.75 60.5546875 C72.08 58.9046875 72.41 57.2546875 72.75 55.5546875 C75.225 55.0596875 75.225 55.0596875 77.75 54.5546875 C77.94361753 49.03658785 77.56170643 44.77666486 75.75 39.5546875 C75.42 39.2246875 75.09 38.8946875 74.75 38.5546875 C74.69392578 37.61882812 74.69392578 37.61882812 74.63671875 36.6640625 C74.40277851 33.89347612 74.0407351 32.03492358 72.75 29.5546875 C68.96364556 27.20605025 64.9943209 25.85884097 60.75 24.5546875 C59.76 24.2246875 58.77 23.8946875 57.75 23.5546875 C56.57124202 20.30077763 55.76847055 17.00776298 54.91015625 13.65625 C53.60972568 10.17967803 52.83128886 9.4600972 49.75 7.5546875 C41.62560865 4.98781829 32.98280994 5.31166698 24.5625 5.4296875 C22.7052832 5.44322266 22.7052832 5.44322266 20.81054688 5.45703125 C17.79015489 5.48035474 14.77018601 5.51308273 11.75 5.5546875 C11.75 6.2146875 11.75 6.8746875 11.75 7.5546875 C4.63906739 8.48220045 0.56572247 5.35092704 -5.25 1.5546875 C-18.97340915 -6.4506345 -35.52352002 -4.05653031 -50.25 -0.4453125 C-52.07917969 0.1115625 -52.07917969 0.1115625 -53.9453125 0.6796875 C-57.7424605 1.68507893 -60.43292464 1.33368247 -64.25 0.5546875 C-64.0334375 1.16957031 -63.816875 1.78445312 -63.59375 2.41796875 C-63.3153125 3.22621094 -63.036875 4.03445312 -62.75 4.8671875 C-62.4715625 5.66769531 -62.193125 6.46820313 -61.90625 7.29296875 C-61.25 9.5546875 -61.25 9.5546875 -61.25 12.5546875 C-62.24 12.8846875 -63.23 13.2146875 -64.25 13.5546875 C-63.79067228 16.12692273 -63.3296419 17.45972986 -61.625 19.4921875 C-60.25 21.5546875 -60.25 21.5546875 -60.1875 23.9296875 C-61.29322572 26.66148046 -62.18124439 27.55789627 -64.3125 29.4921875 C-66.90517421 31.87447765 -67.21219761 32.21446598 -67.625 35.9296875 C-67.439375 37.2290625 -67.439375 37.2290625 -67.25 38.5546875 C-63.49480943 38.04261606 -60.58311475 37.3371793 -57.25 35.5546875 C-57.91708984 36.33392578 -57.91708984 36.33392578 -58.59765625 37.12890625 C-62.17135573 41.1939881 -62.17135573 41.1939881 -63.1875 46.2421875 C-62.878125 47.0053125 -62.56875 47.7684375 -62.25 48.5546875 C-62.12625 49.4209375 -62.0025 50.2871875 -61.875 51.1796875 C-61.15999147 53.8967199 -60.27843076 54.6885312 -58.25 56.5546875 C-57.0625 58.7421875 -57.0625 58.7421875 -56.25 60.5546875 C-57.9 60.2246875 -59.55 59.8946875 -61.25 59.5546875 C-61.25 58.5646875 -61.25 57.5746875 -61.25 56.5546875 C-61.86875 56.3484375 -62.4875 56.1421875 -63.125 55.9296875 C-65.25 54.5546875 -65.25 54.5546875 -66.5625 51.8046875 C-67.2974181 48.33052919 -67.06646161 45.98382628 -66.25 42.5546875 C-66.889375 42.2659375 -67.52875 41.9771875 -68.1875 41.6796875 C-70.25 40.5546875 -70.25 40.5546875 -71.25 38.5546875 C-71.70811042 35.15158153 -72.03070456 32.65728255 -69.98046875 29.76171875 C-68.46595161 28.21035205 -67.02059226 26.80694576 -65.25 25.5546875 C-64.59 25.5546875 -63.93 25.5546875 -63.25 25.5546875 C-64.48794673 21.94621974 -64.48794673 21.94621974 -66.875 19.0546875 C-68.25 17.5546875 -68.25 17.5546875 -68.5625 14.9921875 C-68.25 12.5546875 -68.25 12.5546875 -66.25 10.5546875 C-66.3049973 7.94264306 -66.3049973 7.94264306 -66.75 5.0546875 C-67.15625 2.0859375 -67.15625 2.0859375 -67.25 -0.4453125 C-66.59 -1.1053125 -65.93 -1.7653125 -65.25 -2.4453125 C-63.29678993 -2.4453125 -61.34321617 -2.43979096 -59.390625 -2.390625 C-56.15535882 -2.47327779 -53.32400011 -3.47457562 -50.25 -4.4453125 C-34.39336908 -8.84256179 -14.27404809 -9.16909339 0 0 Z " fill="#E4E3DA" transform="translate(117.25,85.4453125)"/>
<path d="M0 0 C5.8242271 2.05005932 11.24114431 4.98552919 16.65234375 7.93359375 C16.65234375 8.59359375 16.65234375 9.25359375 16.65234375 9.93359375 C15.43546875 10.42859375 14.21859375 10.92359375 12.96484375 11.43359375 C8.13054555 13.90217155 5.53353145 16.82984973 3.65234375 21.93359375 C2.9948518 25.93742533 2.72666945 29.87946462 2.65234375 33.93359375 C-4.93830289 33.44658324 -12.01824792 31.93595788 -19.34765625 29.93359375 C-20.06667667 19.73948204 -19.08016508 12.74634917 -12.55078125 4.7265625 C-8.63183652 0.75275254 -5.59268575 -1.11067397 0 0 Z " fill="#F4F0E6" transform="translate(102.34765625,85.06640625)"/>
<path d="M0 0 C0.33 0 0.66 0 1 0 C1 9.9 1 19.8 1 30 C1.66 30 2.32 30 3 30 C2.98428955 29.37432129 2.9685791 28.74864258 2.95239258 28.10400391 C2.89015325 25.27776069 2.85104538 22.45166139 2.8125 19.625 C2.78736328 18.64015625 2.76222656 17.6553125 2.73632812 16.640625 C2.72666016 15.69960938 2.71699219 14.75859375 2.70703125 13.7890625 C2.6913208 12.91975098 2.67561035 12.05043945 2.65942383 11.15478516 C2.77181396 10.44370605 2.8842041 9.73262695 3 9 C6.70126859 6.53248761 8.62223532 6.69278844 13 7 C14.32 7.66 15.64 8.32 17 9 C17 20.22 17 31.44 17 43 C16.67 43 16.34 43 16 43 C16 38.05 16 33.1 16 28 C13.36 28 10.72 28 8 28 C8 32.62 8 37.24 8 42 C9.65 42 11.3 42 13 42 C13.33 42.66 13.66 43.32 14 44 C11.03 44.495 11.03 44.495 8 45 C7.67 49.29 7.34 53.58 7 58 C9.97 58 12.94 58 16 58 C14.33333333 61.33333333 12.66666667 64.66666667 11 68 C10.34 68 9.68 68 9 68 C8.505 65.525 8.505 65.525 8 63 C7.34 63.99 6.68 64.98 6 66 C1.125 64.125 1.125 64.125 0 63 C-0.0940067 61.03630847 -0.11743381 59.06920801 -0.11352539 57.10327148 C-0.11344986 55.84203964 -0.11337433 54.5808078 -0.11329651 53.28135681 C-0.1081891 51.89460206 -0.10297309 50.50784771 -0.09765625 49.12109375 C-0.09579201 47.71004791 -0.09436814 46.29900143 -0.09336853 44.88795471 C-0.08954379 41.16759465 -0.0797139 37.4472734 -0.06866455 33.72692871 C-0.05844948 29.93319219 -0.05387071 26.13944942 -0.04882812 22.34570312 C-0.03809158 14.89711769 -0.0210157 7.44856428 0 0 Z " fill="#213A44" transform="translate(181,33)"/>
<path d="M0 0 C1.20785156 -0.03738281 2.41570313 -0.07476562 3.66015625 -0.11328125 C6.9375 0.3125 6.9375 0.3125 9.3671875 2.15625 C11.45255698 5.01974243 11.00613338 6.81219767 10.9375 10.3125 C11.70986152 12.84211358 12.72531687 14.93475616 13.9375 17.3125 C14.5975 17.6425 15.2575 17.9725 15.9375 18.3125 C16.5625 20.375 16.5625 20.375 16.9375 22.3125 C12.81204958 22.74498216 8.6860801 23.17201303 4.55957031 23.59423828 C3.159029 23.73828844 1.75863373 23.88376661 0.35839844 24.03076172 C-13.960855 25.53213851 -13.960855 25.53213851 -21.0625 25.3125 C-22.66549483 21.10463858 -23.16293342 17.79434122 -23.0625 13.3125 C-21.85851562 12.91417969 -20.65453125 12.51585937 -19.4140625 12.10546875 C-17.83835764 11.5708546 -16.26284673 11.03566854 -14.6875 10.5 C-13.8934375 10.23896484 -13.099375 9.97792969 -12.28125 9.70898438 C-11.52070313 9.44794922 -10.76015625 9.18691406 -9.9765625 8.91796875 C-9.2748291 8.68231201 -8.5730957 8.44665527 -7.85009766 8.20385742 C-5.70939202 7.32134982 -5.70939202 7.32134982 -4.0625 4.3125 C-5.196875 4.18875 -6.33125 4.065 -7.5 3.9375 C-8.675625 3.73125 -9.85125 3.525 -11.0625 3.3125 C-11.3925 2.6525 -11.7225 1.9925 -12.0625 1.3125 C-8.01793571 0.36851251 -4.14990737 0.08432967 0 0 Z " fill="#E1AE33" transform="translate(40.0625,123.6875)"/>
<path d="M0 0 C0.66 0 1.32 0 2 0 C2.00142502 0.78260696 2.00285004 1.56521393 2.00431824 2.37153625 C2.02214122 9.74372851 2.06373218 17.11522039 2.13209057 24.48710346 C2.16639544 28.27720886 2.19147582 32.06690972 2.19555664 35.85717773 C2.19983237 39.51448505 2.22823209 43.1708793 2.27343178 46.82790184 C2.28643049 48.22370271 2.290706 49.61961272 2.28615379 51.01546669 C2.28126589 52.96912947 2.31014874 54.92278877 2.34057617 56.8762207 C2.34723801 57.9887471 2.35389984 59.1012735 2.36076355 60.24751282 C2.74082727 63.23308601 2.74082727 63.23308601 5.54121399 64.88273621 C6.35261337 65.25143326 7.16401276 65.62013031 8 66 C8.66 64.68 9.32 63.36 10 62 C10.33 62 10.66 62 11 62 C11 63.98 11 65.96 11 68 C11.66 68 12.32 68 13 68 C13.28875 67.05125 13.5775 66.1025 13.875 65.125 C15 62 15 62 17 60 C17.30599063 57.43083343 17.51087087 54.95241616 17.625 52.375 C17.66367188 51.66859375 17.70234375 50.9621875 17.7421875 50.234375 C17.83647724 48.49001476 17.91932891 46.74504309 18 45 C18.33 45 18.66 45 19 45 C19 54.24 19 63.48 19 73 C20.98 73.66 22.96 74.32 25 75 C28.03153046 76.27009074 31.00703777 77.63956262 34 79 C34 82.63 34 86.26 34 90 C31.74971671 89.85860519 29.49977794 89.71171997 27.25 89.5625 C25.37054688 89.44068359 25.37054688 89.44068359 23.453125 89.31640625 C20.81682447 89.07484478 18.51962706 88.75716066 16 88 C15.4140625 84.97265625 15.4140625 84.97265625 14.828125 81.9453125 C14.1594222 79.8824235 14.1594222 79.8824235 12.30078125 78.86328125 C10.58369331 78.21900886 8.8415487 77.64080235 7.08984375 77.09765625 C-1.31771057 74.33681128 -1.31771057 74.33681128 -3.34375 70.3671875 C-4.0625 67.4375 -4.0625 67.4375 -4.47265625 64.62109375 C-5.05981258 61.70270934 -6.06829967 60.2248581 -8 58 C-4.6885981 58.57093136 -3.24945577 59.54604826 -1 62 C-0.34 62.33 0.32 62.66 1 63 C1 59.04 1 55.08 1 51 C0.34 51 -0.32 51 -1 51 C-1 48.69 -1 46.38 -1 44 C-0.34 44 0.32 44 1 44 C1 39.71 1 35.42 1 31 C-0.65 30.67 -2.3 30.34 -4 30 C-4 29.67 -4 29.34 -4 29 C-2.35 29 -0.7 29 1 29 C0.9278125 27.99582031 0.855625 26.99164063 0.78125 25.95703125 C0.18422413 17.29004601 -0.13396669 8.69294947 0 0 Z " fill="#13303B" transform="translate(179,33)"/>
<path d="M0 0 C8.79545097 4.16626625 17.03909915 8.93113725 25.31933594 14.03613281 C26.1549707 14.54756836 26.99060547 15.05900391 27.8515625 15.5859375 C28.60260254 16.0504834 29.35364258 16.5150293 30.12744141 16.99365234 C31.93931083 18.15779581 31.93931083 18.15779581 34 18 C38.59225513 29.52164009 38.59225513 29.52164009 38 35 C34.34996822 34.38272424 31.22078614 33.37174055 27.83203125 31.890625 C26.85556641 31.46523437 25.87910156 31.03984375 24.87304688 30.6015625 C23.86306641 30.15554687 22.85308594 29.70953125 21.8125 29.25 C20.82185547 28.81945312 19.83121094 28.38890625 18.81054688 27.9453125 C12.43567198 25.15290828 6.20075299 22.16005377 0 19 C0 12.73 0 6.46 0 0 Z " fill="#F4C64B" transform="translate(199,66)"/>
<path d="M0 0 C12.53846154 0 12.53846154 0 16 3 C17.80739357 6.61478714 17.22756068 10.83232546 17.25 14.8125 C17.270625 15.71548828 17.29125 16.61847656 17.3125 17.54882812 C17.34156126 22.49287548 17.31645743 26.0315206 14 30 C9.81537205 32.09231398 4.67855628 31 0 31 C0 20.77 0 10.54 0 0 Z " fill="#13313D" transform="translate(107,158)"/>
<path d="M0 0 C-0.37511719 0.4125 -0.75023438 0.825 -1.13671875 1.25 C-8.09007189 9.09660505 -11.82530458 15.21863687 -12.5625 25.75 C-12.64628906 26.92046875 -12.73007813 28.0909375 -12.81640625 29.296875 C-12.90728516 30.63492188 -12.90728516 30.63492188 -13 32 C-19.76873098 29.95296581 -24.97049474 26.98083585 -29 21.0625 C-30.24583912 17.24711769 -30.68838683 14.99264362 -30 11 C-26.80464924 5.60473485 -22.75429483 2.04034165 -16.6875 0.38671875 C-11.14825403 -0.41035298 -5.57833771 -0.21424626 0 0 Z " fill="#F2EFE5" transform="translate(94,84)"/>
<path d="M0 0 C12.3125263 0.43227998 24.50912916 1.08446081 36 6 C36 6.33 36 6.66 36 7 C31.545 7.495 31.545 7.495 27 8 C26.67 12.95 26.34 17.9 26 23 C25.67 23 25.34 23 25 23 C24.690625 22.030625 24.38125 21.06125 24.0625 20.0625 C23.30476658 17.15934208 23.30476658 17.15934208 22 16 C20.48071962 15.92820036 18.95832518 15.91607993 17.4375 15.9375 C16.61121094 15.94652344 15.78492188 15.95554687 14.93359375 15.96484375 C14.29550781 15.97644531 13.65742188 15.98804687 13 16 C13.66 17.98 14.32 19.96 15 22 C17.97 22.33 20.94 22.66 24 23 C24 23.33 24 23.66 24 24 C19.71 24 15.42 24 11 24 C10.34 22.35 9.68 20.7 9 19 C5.40735548 17.80245183 2.77282526 17.66905042 -1 18 C-4.39076635 20.19941601 -5.27913549 22.47367182 -6.25 26.25 C-6.4975 27.4875 -6.745 28.725 -7 30 C-7.33 30 -7.66 30 -8 30 C-8.47269787 24.20945113 -7.63919388 20.45525553 -4 16 C-2.06845896 14.39823426 -0.19577745 13.24760083 2 12 C1.34 11.67 0.68 11.34 0 11 C0 7.37 0 3.74 0 0 Z " fill="#F0EDE3" transform="translate(149,108)"/>
<path d="M0 0 C2.31 0 4.62 0 7 0 C8.65 4.62 10.3 9.24 12 14 C12.33 9.38 12.66 4.76 13 0 C14.98 0 16.96 0 19 0 C19 10.23 19 20.46 19 31 C16.69 31 14.38 31 12 31 C10.35 26.05 8.7 21.1 7 16 C6.67 20.95 6.34 25.9 6 31 C4.02 31 2.04 31 0 31 C0 20.77 0 10.54 0 0 Z " fill="#243F4A" transform="translate(151,158)"/>
<path d="M0 0 C-0.66 0.33 -1.32 0.66 -2 1 C-2 7.27 -2 13.54 -2 20 C-1.34 20.33 -0.68 20.66 0 21 C-1.16917969 21.03738281 -2.33835938 21.07476562 -3.54296875 21.11328125 C-5.09117675 21.1789628 -6.63935242 21.24540939 -8.1875 21.3125 C-8.95642578 21.33505859 -9.72535156 21.35761719 -10.51757812 21.38085938 C-15.20324998 21.60207135 -18.06625421 22.23770057 -22 25 C-25.3905569 25.67811138 -27.21473122 25.48990548 -30.16015625 23.65234375 C-32.16288689 22.15824311 -34.09909782 20.62107394 -36 19 C-35 17 -35 17 -33.32592773 16.31396484 C-32.61895752 16.11496582 -31.9119873 15.9159668 -31.18359375 15.7109375 C-30.03793945 15.38222656 -30.03793945 15.38222656 -28.86914062 15.046875 C-28.06669922 14.82515625 -27.26425781 14.6034375 -26.4375 14.375 C-25.63119141 14.14554688 -24.82488281 13.91609375 -23.99414062 13.6796875 C-21.99807797 13.11275846 -19.99928081 12.55547357 -18 12 C-17.67 9.03 -17.34 6.06 -17 3 C-10.96682242 0.73755841 -6.42981633 -0.35071725 0 0 Z " fill="#112F3A" transform="translate(150,65)"/>
<path d="M0 0 C0.99773437 -0.00966797 1.99546875 -0.01933594 3.0234375 -0.02929688 C9.66999781 0.04583047 15.37560634 1.18596852 21.625 3.4375 C21.625 4.0975 21.625 4.7575 21.625 5.4375 C20.22886935 5.29454109 18.83310692 5.14798442 17.4375 5 C16.66019531 4.91878906 15.88289063 4.83757812 15.08203125 4.75390625 C12.625 4.4375 12.625 4.4375 10.22265625 3.91796875 C-1.56889214 1.73697559 -13.76251207 4.1199561 -25.0703125 7.5625 C-28.8674605 8.56789143 -31.55792464 8.21649497 -35.375 7.4375 C-35.1584375 8.05238281 -34.941875 8.66726562 -34.71875 9.30078125 C-34.4403125 10.10902344 -34.161875 10.91726562 -33.875 11.75 C-33.5965625 12.55050781 -33.318125 13.35101563 -33.03125 14.17578125 C-32.375 16.4375 -32.375 16.4375 -32.375 19.4375 C-33.365 19.7675 -34.355 20.0975 -35.375 20.4375 C-34.91567228 23.00973523 -34.4546419 24.34254236 -32.75 26.375 C-31.375 28.4375 -31.375 28.4375 -31.3125 30.8125 C-32.41822572 33.54429296 -33.30624439 34.44070877 -35.4375 36.375 C-38.03017421 38.75729015 -38.33719761 39.09727848 -38.75 42.8125 C-38.564375 44.111875 -38.564375 44.111875 -38.375 45.4375 C-34.61980943 44.92542856 -31.70811475 44.2199918 -28.375 42.4375 C-29.04208984 43.21673828 -29.04208984 43.21673828 -29.72265625 44.01171875 C-33.29635573 48.0768006 -33.29635573 48.0768006 -34.3125 53.125 C-34.003125 53.888125 -33.69375 54.65125 -33.375 55.4375 C-33.25125 56.30375 -33.1275 57.17 -33 58.0625 C-32.28499147 60.7795324 -31.40343076 61.5713437 -29.375 63.4375 C-28.1875 65.625 -28.1875 65.625 -27.375 67.4375 C-29.025 67.1075 -30.675 66.7775 -32.375 66.4375 C-32.375 65.4475 -32.375 64.4575 -32.375 63.4375 C-32.99375 63.23125 -33.6125 63.025 -34.25 62.8125 C-36.375 61.4375 -36.375 61.4375 -37.6875 58.6875 C-38.4224181 55.21334169 -38.19146161 52.86663878 -37.375 49.4375 C-38.014375 49.14875 -38.65375 48.86 -39.3125 48.5625 C-41.375 47.4375 -41.375 47.4375 -42.375 45.4375 C-42.83311042 42.03439403 -43.15570456 39.54009505 -41.10546875 36.64453125 C-39.59095161 35.09316455 -38.14559226 33.68975826 -36.375 32.4375 C-35.715 32.4375 -35.055 32.4375 -34.375 32.4375 C-35.61294673 28.82903224 -35.61294673 28.82903224 -38 25.9375 C-39.375 24.4375 -39.375 24.4375 -39.6875 21.875 C-39.375 19.4375 -39.375 19.4375 -37.375 17.4375 C-37.4299973 14.82545556 -37.4299973 14.82545556 -37.875 11.9375 C-38.28125 8.96875 -38.28125 8.96875 -38.375 6.4375 C-37.715 5.7775 -37.055 5.1175 -36.375 4.4375 C-34.42178993 4.4375 -32.46821617 4.44302154 -30.515625 4.4921875 C-27.28035882 4.40953471 -24.44900011 3.40823688 -21.375 2.4375 C-14.25653006 0.43700339 -7.37583768 0.02270886 0 0 Z " fill="#F3EEDE" transform="translate(88.375,78.5625)"/>
<path d="M0 0 C2.64 0 5.28 0 8 0 C8.85843909 3.9318489 9.71282476 7.86455447 10.56347656 11.7980957 C10.85338057 13.13590218 11.14438784 14.47347008 11.43652344 15.81079102 C11.85642359 17.73390513 12.2720188 19.6579576 12.6875 21.58203125 C12.93886719 22.73936768 13.19023437 23.8967041 13.44921875 25.08911133 C14 28 14 28 14 31 C12.02 31 10.04 31 8 31 C8 28.69 8 26.38 8 24 C5.69 24.33 3.38 24.66 1 25 C0.67 26.98 0.34 28.96 0 31 C-1.98 31 -3.96 31 -6 31 C-5.35901503 24.42322711 -4.32407366 18.03414989 -3 11.5625 C-2.82210937 10.66595703 -2.64421875 9.76941406 -2.4609375 8.84570312 C-1.13149889 2.26299779 -1.13149889 2.26299779 0 0 Z " fill="#1C3843" transform="translate(180,158)"/>
<path d="M0 0 C1.134375 0.020625 2.26875 0.04125 3.4375 0.0625 C9.94372776 21.69728648 9.94372776 21.69728648 9.4375 31.0625 C7.7875 31.0625 6.1375 31.0625 4.4375 31.0625 C4.1075 28.7525 3.7775 26.4425 3.4375 24.0625 C1.1275 24.0625 -1.1825 24.0625 -3.5625 24.0625 C-3.8925 26.3725 -4.2225 28.6825 -4.5625 31.0625 C-6.2125 31.0625 -7.8625 31.0625 -9.5625 31.0625 C-9.23957995 23.8775289 -8.03949744 16.95981981 -6.5625 9.9375 C-6.38428711 9.08373779 -6.20607422 8.22997559 -6.02246094 7.3503418 C-4.45286399 0.07812042 -4.45286399 0.07812042 0 0 Z " fill="#1B3743" transform="translate(65.5625,157.9375)"/>
<path d="M0 0 C1.65 0 3.3 0 5 0 C5.33 8.25 5.66 16.5 6 25 C7.65 25.33 9.3 25.66 11 26 C11.33 17.42 11.66 8.84 12 0 C13.98 0 15.96 0 18 0 C18.14570522 4.20796686 18.23421087 8.41528166 18.3125 12.625 C18.35439453 13.81480469 18.39628906 15.00460938 18.43945312 16.23046875 C18.577648 26.12522175 18.577648 26.12522175 15.73046875 29.79296875 C12.00694329 32.80268533 12.00694329 32.80268533 9 32.6875 C8.0409375 32.69330078 8.0409375 32.69330078 7.0625 32.69921875 C3.66492061 31.54738786 1.61503839 30.17418074 0 27 C-0.6231638 22.38299247 -0.4687934 17.83542537 -0.3125 13.1875 C-0.28994141 11.92228516 -0.26738281 10.65707031 -0.24414062 9.35351562 C-0.18529078 6.23447381 -0.1031137 3.11784098 0 0 Z " fill="#1C3844" transform="translate(129,158)"/>
<path d="M0 0 C1.4800841 0.11362262 2.95910074 0.24122908 4.4375 0.375 C5.26121094 0.44460937 6.08492187 0.51421875 6.93359375 0.5859375 C7.95646484 0.79089844 7.95646484 0.79089844 9 1 C9.33 1.66 9.66 2.32 10 3 C10.66 2.67 11.32 2.34 12 2 C12.66 4.97 13.32 7.94 14 11 C16.0109375 11.37125 16.0109375 11.37125 18.0625 11.75 C22.74844988 12.81599808 26.13587921 14.10190941 30 17 C30.9375 20.25 30.9375 20.25 31 23 C30.67 22.01 30.34 21.02 30 20 C29.34 20.33 28.68 20.66 28 21 C25.7927077 21.07092842 23.58332548 21.08415025 21.375 21.0625 C20.18648437 21.05347656 18.99796875 21.04445313 17.7734375 21.03515625 C16.85820312 21.02355469 15.94296875 21.01195313 15 21 C15 24.96 15 28.92 15 33 C19.62 33 24.24 33 29 33 C29 33.33 29 33.66 29 34 C8.41072182 34.21274799 8.41072182 34.21274799 3 33 C0.875 30.625 0.875 30.625 0 28 C0.495 26.515 0.495 26.515 1 25 C2.43655854 24.91868537 3.8744483 24.86066441 5.3125 24.8125 C6.51326172 24.76029297 6.51326172 24.76029297 7.73828125 24.70703125 C10.47851584 25.06198392 11.29171079 25.89366282 13 28 C13.06058594 27.28972656 13.12117187 26.57945313 13.18359375 25.84765625 C13.26738281 24.92855469 13.35117188 24.00945312 13.4375 23.0625 C13.51871094 22.14597656 13.59992188 21.22945312 13.68359375 20.28515625 C14 18 14 18 15 17 C17.32817964 16.63239269 19.6618385 16.29758419 22 16 C13.59072121 13.59616001 13.59072121 13.59616001 5 12 C5 11.34 5 10.68 5 10 C4.01 9.67 3.02 9.34 2 9 C1.26953125 6.93359375 1.26953125 6.93359375 0.8125 4.4375 C0.65394531 3.61121094 0.49539062 2.78492187 0.33203125 1.93359375 C0.16767578 0.97646484 0.16767578 0.97646484 0 0 Z " fill="#4C5D63" transform="translate(161,98)"/>
<path d="M0 0 C2.5625 1.1875 2.5625 1.1875 4 3 C4.25 5.6875 4.25 5.6875 4 8 C2.35 8 0.7 8 -1 8 C-1.33 7.01 -1.66 6.02 -2 5 C-3.32 5 -4.64 5 -6 5 C-5.67 7.31 -5.34 9.62 -5 12 C-4.278125 12.226875 -3.55625 12.45375 -2.8125 12.6875 C0.69277149 14.32329336 2.62123641 15.94158967 5 19 C5.69151325 23.30274909 5.51557405 25.20945312 3.125 28.875 C0.36072689 31.63927311 -0.42622277 31.95749798 -4.375 32.25 C-8 32 -8 32 -10.375 30.875 C-12.54656687 28.36934592 -12.7111841 26.24917885 -13 23 C-10.625 22.8125 -10.625 22.8125 -8 23 C-7.34 23.99 -6.68 24.98 -6 26 C-4.68 26 -3.36 26 -2 26 C-1.62866246 23.65554515 -1.62866246 23.65554515 -2 21 C-3.91547719 18.95106841 -3.91547719 18.95106841 -6.4375 17.3125 C-10.9286578 14.1426844 -10.9286578 14.1426844 -12 12 C-12.203125 9.94140625 -12.203125 9.94140625 -12.25 7.5625 C-12.27578125 6.78003906 -12.3015625 5.99757812 -12.328125 5.19140625 C-12 3 -12 3 -10.76171875 1.23828125 C-7.50205214 -1.05288131 -3.81277669 -0.50240559 0 0 Z " fill="#1C3843" transform="translate(209,158)"/>
<path d="M0 0 C2.5 1.1875 2.5 1.1875 4 3 C4.25 5.6875 4.25 5.6875 4 8 C2.35 8 0.7 8 -1 8 C-1.33 7.01 -1.66 6.02 -2 5 C-3.32 5.33 -4.64 5.66 -6 6 C-5.64594158 8.87040221 -5.14430291 9.86846235 -2.96875 11.8515625 C-2.1540625 12.43679687 -1.339375 13.02203125 -0.5 13.625 C3.91066998 16.82133995 3.91066998 16.82133995 5 19 C5.58394161 26.24087591 5.58394161 26.24087591 3.125 29.4375 C-0.69217801 32.24424853 -3.24222731 32.56448151 -8 32 C-10.29580493 30.19533741 -11.37224043 28.51562842 -13 26 C-13 25.01 -13 24.02 -13 23 C-11.02 23 -9.04 23 -7 23 C-6.67 23.99 -6.34 24.98 -6 26 C-4.35 25.67 -2.7 25.34 -1 25 C-1.32412372 21.97484531 -1.89828652 21.08758661 -4.25 19.0625 C-5.1575 18.381875 -6.065 17.70125 -7 17 C-11.71582558 13.22733954 -11.71582558 13.22733954 -12.453125 10.04296875 C-12.62723711 6.69131066 -12.22573848 4.3762308 -10.5 1.5 C-6.96690959 -0.61985425 -4.02074668 -0.67561727 0 0 Z " fill="#1A3642" transform="translate(90,158)"/>
<path d="M0 0 C0.33 0 0.66 0 1 0 C1 9.24 1 18.48 1 28 C0.34 27.01 -0.32 26.02 -1 25 C-3.02028623 24.17540808 -3.02028623 24.17540808 -5.41015625 23.71875 C-6.31008301 23.51813965 -7.21000977 23.3175293 -8.13720703 23.11083984 C-9.58522705 22.80847412 -9.58522705 22.80847412 -11.0625 22.5 C-12.04589355 22.28424316 -13.02928711 22.06848633 -14.04248047 21.84619141 C-20.89605215 20.36718687 -27.77688003 19.06686182 -34.71899414 18.07617188 C-38.53044992 17.48294919 -41.27944082 16.83103875 -44 14 C-44 13.01 -44 12.02 -44 11 C-38.06 11.66 -32.12 12.32 -26 13 C-26 11.68 -26 10.36 -26 9 C-22.30090527 9.60541175 -19.28645598 10.65257655 -15.91796875 12.28515625 C-14.98662109 12.73310547 -14.05527344 13.18105469 -13.09570312 13.64257812 C-12.13599609 14.11115234 -11.17628906 14.57972656 -10.1875 15.0625 C-8.71893555 15.77116211 -8.71893555 15.77116211 -7.22070312 16.49414062 C-4.81134426 17.65768466 -2.40533889 18.82816824 0 20 C0 13.4 0 6.8 0 0 Z " fill="#DBAB34" transform="translate(239,110)"/>
<path d="M0 0 C0.33 0 0.66 0 1 0 C1 20.13 1 40.26 1 61 C0.67 61 0.34 61 0 61 C-0.495 53.575 -0.495 53.575 -1 46 C-3.97 46 -6.94 46 -10 46 C-10 41.71 -10 37.42 -10 33 C-8.02 32.34 -6.04 31.68 -4 31 C-5.65 30.67 -7.3 30.34 -9 30 C-9 25.38 -9 20.76 -9 16 C-6.36 16 -3.72 16 -1 16 C-0.67 10.72 -0.34 5.44 0 0 Z " fill="#828059" transform="translate(198,45)"/>
<path d="M0 0 C4.01649228 1.51028355 7.72825836 3.37795948 11.5078125 5.40625 C12.115112 5.73161743 12.7224115 6.05698486 13.34811401 6.39221191 C14.62451606 7.0767852 15.90023195 7.76263922 17.17529297 8.44970703 C19.12428009 9.49961219 21.07562215 10.54503226 23.02734375 11.58984375 C32.56972768 16.71315178 32.56972768 16.71315178 36 19 C36.495 17.515 36.495 17.515 37 16 C37.495 20.455 37.495 20.455 38 25 C34.34996822 24.38272424 31.22078614 23.37174055 27.83203125 21.890625 C26.85556641 21.46523437 25.87910156 21.03984375 24.87304688 20.6015625 C23.86306641 20.15554687 22.85308594 19.70953125 21.8125 19.25 C20.82185547 18.81945312 19.83121094 18.38890625 18.81054688 17.9453125 C12.43850298 15.15414836 6.18938071 12.17526571 0 9 C0 6.03 0 3.06 0 0 Z " fill="#E2AE33" transform="translate(199,76)"/>
<path d="M0 0 C0.33 0.66 0.66 1.32 1 2 C7.82116822 4.09342755 14.90732474 5.30463968 22 6 C22 9.63 22 13.26 22 17 C14.35705215 16.43801854 7.40668067 14.98085646 0 13 C0 8.71 0 4.42 0 0 Z " fill="#ACAEA5" transform="translate(83,102)"/>
<path d="M0 0 C1.98 0 3.96 0 6 0 C6 8.58 6 17.16 6 26 C8.97 26 11.94 26 15 26 C15 27.65 15 29.3 15 31 C10.05 31 5.1 31 0 31 C0 20.77 0 10.54 0 0 Z " fill="#203B46" transform="translate(38,158)"/>
<path d="M0 0 C2.0839403 0.11443603 4.16716493 0.24195547 6.25 0.375 C7.41015625 0.44460937 8.5703125 0.51421875 9.765625 0.5859375 C12.70694334 0.96248308 14.49949011 1.4774123 17 3 C15.68 3 14.36 3 13 3 C13.495 4.093125 13.99 5.18625 14.5 6.3125 C16 10 16 10 16 13 C18.31 13.33 20.62 13.66 23 14 C23 14.33 23 14.66 23 15 C16.4 15 9.8 15 3 15 C0 4.5 0 4.5 0 0 Z " fill="#173440" transform="translate(147,94)"/>
<path d="M0 0 C0.33 0.66 0.66 1.32 1 2 C2.84006813 2.8430749 2.84006813 2.8430749 5.0625 3.5 C5.866875 3.75394531 6.67125 4.00789063 7.5 4.26953125 C10.9790739 5.28607316 14.47268424 6.16627082 18 7 C17.67 11.62 17.34 16.24 17 21 C10.10465976 18.70155325 5.13521007 16.13608978 1 10.0625 C-0.14473399 6.55675215 -0.21991928 3.6653214 0 0 Z " fill="#AEAFA6" transform="translate(64,95)"/>
<path d="M0 0 C2.97 0.99 5.94 1.98 9 3 C9 8.28 9 13.56 9 19 C6.03 18.67 3.06 18.34 0 18 C0 12.06 0 6.12 0 0 Z " fill="#9CA09A" transform="translate(149,67)"/>
<path d="M0 0 C28.51583431 12.27375146 28.51583431 12.27375146 33 19 C20.60990819 18.75219816 8.5265708 10.54397197 0 2 C0 1.34 0 0.68 0 0 Z " fill="#E3AF33" transform="translate(98,43)"/>
<path d="M0 0 C0.33 0 0.66 0 1 0 C1 9.9 1 19.8 1 30 C1.66 30 2.32 30 3 30 C3.01981934 30.91289795 3.03963867 31.8257959 3.06005859 32.76635742 C3.13836264 36.16782472 3.22506225 39.56886604 3.31738281 42.9699707 C3.35555952 44.43928862 3.39043182 45.90869639 3.421875 47.37817383 C3.46777289 49.49593114 3.52572372 51.6130759 3.5859375 53.73046875 C3.6173584 55.00301514 3.6487793 56.27556152 3.68115234 57.58666992 C3.98215158 60.80892902 4.61791243 63.09761611 6 66 C1.125 64.125 1.125 64.125 0 63 C-0.0940067 61.03630847 -0.11743381 59.06920801 -0.11352539 57.10327148 C-0.11344986 55.84203964 -0.11337433 54.5808078 -0.11329651 53.28135681 C-0.1081891 51.89460206 -0.10297309 50.50784771 -0.09765625 49.12109375 C-0.09579201 47.71004791 -0.09436814 46.29900143 -0.09336853 44.88795471 C-0.08954379 41.16759465 -0.0797139 37.4472734 -0.06866455 33.72692871 C-0.05844948 29.93319219 -0.05387071 26.13944942 -0.04882812 22.34570312 C-0.03809158 14.89711769 -0.0210157 7.44856428 0 0 Z " fill="#BB9E4A" transform="translate(181,33)"/>
<path d="M0 0 C1.65 0 3.3 0 5 0 C7.50008943 3.75013415 7.29601996 6.72511906 7.25 11.0625 C7.25773437 11.79533203 7.26546875 12.52816406 7.2734375 13.28320312 C7.25336982 18.74663018 7.25336982 18.74663018 5 21 C3.35 21 1.7 21 0 21 C0 14.07 0 7.14 0 0 Z " fill="#E8E7E0" transform="translate(112,163)"/>
<path d="M0 0 C7 0 7 0 9 1 C9 5.62 9 10.24 9 15 C6.03 15 3.06 15 0 15 C0 10.05 0 5.1 0 0 Z " fill="#E9E6DC" transform="translate(170,46)"/>
<path d="M0 0 C2.64 0 5.28 0 8 0 C10.21854707 4.62197306 11.38281159 7.76824163 11 13 C7.37 12.67 3.74 12.34 0 12 C0 8.04 0 4.08 0 0 Z " fill="#15333F" transform="translate(133,97)"/>
<path d="M0 0 C1.09376953 -0.04125 2.18753906 -0.0825 3.31445312 -0.125 C11.20160624 -0.20190094 11.20160624 -0.20190094 14.06396484 1.8359375 C17.1875 5.51767933 17.1875 5.51767933 17.1875 7.5 C13.875 7.6875 13.875 7.6875 10.1875 7.5 C9.70531006 7.01007568 9.22312012 6.52015137 8.72631836 6.01538086 C6.23938068 3.56632133 3.71008281 4.07480197 0.36523438 4.04101562 C-0.92930664 4.05165039 -0.92930664 4.05165039 -2.25 4.0625 C-3.10916016 4.04251953 -3.96832031 4.02253906 -4.85351562 4.00195312 C-10.02909876 3.96883459 -10.02909876 3.96883459 -14.41015625 6.52734375 C-14.87292969 7.17832031 -15.33570313 7.82929688 -15.8125 8.5 C-12.94758376 -0.91329622 -9.00855613 0.08404484 0 0 Z " fill="#F6F5EB" transform="translate(71.8125,123.5)"/>
<path d="M0 0 C2.64 0 5.28 0 8 0 C7.67 1.98 7.34 3.96 7 6 C7.66 6 8.32 6 9 6 C9 9.96 9 13.92 9 18 C6.525 17.01 6.525 17.01 4 16 C4 14.68 4 13.36 4 12 C3.34 12 2.68 12 2 12 C0.86235649 7.73383684 0 4.43513689 0 0 Z " fill="#404B43" transform="translate(171,78)"/>
<path d="M0 0 C1.79093191 -0.08086147 3.58289628 -0.13912702 5.375 -0.1875 C6.87160156 -0.23970703 6.87160156 -0.23970703 8.3984375 -0.29296875 C9.25695312 -0.19628906 10.11546875 -0.09960938 11 0 C15.98078136 7.47117204 15.18232745 16.3394463 15 25 C19.62 25 24.24 25 29 25 C29 25.33 29 25.66 29 26 C28.27554688 26.02578125 27.55109375 26.0515625 26.8046875 26.078125 C18.36469329 26.57327133 13.80809379 28.74512977 8 35 C7.67 34.34 7.34 33.68 7 33 C7.66 33 8.32 33 9 33 C9.309375 32.195625 9.61875 31.39125 9.9375 30.5625 C11 28 11 28 12 27 C12.12866264 24.48659035 12.18975483 22.01413681 12.1875 19.5 C12.18814453 18.77619141 12.18878906 18.05238281 12.18945312 17.30664062 C12.13671304 11.95112463 11.47668773 7.16840705 10 2 C6.7 2 3.4 2 0 2 C0 1.34 0 0.68 0 0 Z " fill="#31464F" transform="translate(133,94)"/>
<path d="M0 0 C1.66666667 0.33333333 3.33333333 0.66666667 5 1 C5.33 0.67 5.66 0.34 6 0 C7.99958364 -0.04080783 10.00045254 -0.04254356 12 0 C12 2.97 12 5.94 12 9 C11.34 8.01 10.68 7.02 10 6 C9.67 6.99 9.34 7.98 9 9 C7.52093108 9.02689216 6.04172517 9.04634621 4.5625 9.0625 C3.32693359 9.07990234 3.32693359 9.07990234 2.06640625 9.09765625 C0 9 0 9 -1 8 C-1.125 4.5 -1.125 4.5 -1 1 C-0.67 0.67 -0.34 0.34 0 0 Z " fill="#91999A" transform="translate(76,197)"/>
<path d="M0 0 C2.33294775 -0.04241723 4.66702567 -0.04092937 7 0 C8 1 8 1 8.09765625 3.72265625 C8.08605469 4.82480469 8.07445312 5.92695312 8.0625 7.0625 C8.05347656 8.16722656 8.04445312 9.27195312 8.03515625 10.41015625 C8.02355469 11.26480469 8.01195312 12.11945313 8 13 C5.36 13 2.72 13 0 13 C0 8.71 0 4.42 0 0 Z " fill="#EEEBE0" transform="translate(171,63)"/>
<path d="M0 0 C0.33 0 0.66 0 1 0 C1.33 1.65 1.66 3.3 2 5 C5.75519057 4.48792856 8.66688525 3.7824918 12 2 C11.55527344 2.51949219 11.11054687 3.03898437 10.65234375 3.57421875 C7.07864427 7.6393006 7.07864427 7.6393006 6.0625 12.6875 C6.371875 13.450625 6.68125 14.21375 7 15 C7.12375 15.86625 7.2475 16.7325 7.375 17.625 C8.09000853 20.3420324 8.97156924 21.1338437 11 23 C12.1875 25.1875 12.1875 25.1875 13 27 C11.35 26.67 9.7 26.34 8 26 C8 25.01 8 24.02 8 23 C7.071875 22.690625 7.071875 22.690625 6.125 22.375 C4 21 4 21 2.6875 18.25 C1.9525819 14.77584169 2.18353839 12.42913878 3 9 C1.68 8.34 0.36 7.68 -1 7 C-0.67 4.69 -0.34 2.38 0 0 Z " fill="#E7E2D4" transform="translate(48,119)"/>
<path d="M0 0 C2.31 0 4.62 0 7 0 C7 4.95 7 9.9 7 15 C4.69 14.67 2.38 14.34 0 14 C0 9.38 0 4.76 0 0 Z " fill="#F2EFE3" transform="translate(189,61)"/>
<path d="M0 0 C2.97 0.33 5.94 0.66 9 1 C9 4.63 9 8.26 9 12 C6.03 11.67 3.06 11.34 0 11 C0 7.37 0 3.74 0 0 Z " fill="#ECE9DF" transform="translate(170,33)"/>
<path d="M0 0 C0.66 0 1.32 0 2 0 C2.33 0.66 2.66 1.32 3 2 C10.26 2 17.52 2 25 2 C25.33 3.32 25.66 4.64 26 6 C16.76 6 7.52 6 -2 6 C-1.34 4.02 -0.68 2.04 0 0 Z " fill="#D7D7D0" transform="translate(119,140)"/>
<path d="M0 0 C4.875 0.875 4.875 0.875 6 2 C6.36090226 9.45864662 6.36090226 9.45864662 4 13 C2.125 12.6875 2.125 12.6875 0 12 C-2.31332486 8.53001271 -2.33957563 7.07490752 -2 3 C-1.34 2.01 -0.68 1.02 0 0 Z " fill="#C3C5C1" transform="translate(149,132)"/>
<path d="M0 0 C2.31 0 4.62 0 7 0 C7 4.29 7 8.58 7 13 C4.69 12.67 2.38 12.34 0 12 C0 8.04 0 4.08 0 0 Z " fill="#F4F1E6" transform="translate(189,46)"/>
<path d="M0 0 C2.31 0 4.62 0 7 0 C7 3.96 7 7.92 7 12 C4.69 12 2.38 12 0 12 C0 8.04 0 4.08 0 0 Z " fill="#F1EDE1" transform="translate(189,78)"/>
<path d="M0 0 C3.96 0 7.92 0 12 0 C12 0.99 12 1.98 12 3 C11.34 3 10.68 3 10 3 C10 5.31 10 7.62 10 10 C9.01 10 8.02 10 7 10 C7 7.69 7 5.38 7 3 C6.34 3 5.68 3 5 3 C5 3.99 5 4.98 5 6 C4.01 6 3.02 6 2 6 C2 6.99 2 7.98 2 9 C2.66 9.33 3.32 9.66 4 10 C2.68 10 1.36 10 0 10 C0 6.7 0 3.4 0 0 Z " fill="#929A9B" transform="translate(91,196)"/>
<path d="M0 0 C10.23 0 20.46 0 31 0 C31 0.33 31 0.66 31 1 C25.39 1 19.78 1 14 1 C13.67 2.32 13.34 3.64 13 5 C11.20866022 5.05391993 9.41686101 5.09275571 7.625 5.125 C6.62726563 5.14820313 5.62953125 5.17140625 4.6015625 5.1953125 C2 5 2 5 0 3 C0 2.01 0 1.02 0 0 Z " fill="#B4B8B5" transform="translate(162,135)"/>
<path d="M0 0 C2.97 0.33 5.94 0.66 9 1 C9.66 3.97 10.32 6.94 11 10 C8.03 9.67 5.06 9.34 2 9 C1.34 6.03 0.68 3.06 0 0 Z " fill="#EFECE1" transform="translate(161,98)"/>
<path d="M0 0 C0.66 0.33 1.32 0.66 2 1 C1.01 2.485 1.01 2.485 0 4 C0.78375 3.505 1.5675 3.01 2.375 2.5 C5 1 5 1 7 1 C6.34 2.65 5.68 4.3 5 6 C5.66 6.33 6.32 6.66 7 7 C1.70769231 11.06153846 1.70769231 11.06153846 -1.875 10.75 C-2.57625 10.5025 -3.2775 10.255 -4 10 C-4.25 7.25 -4.25 7.25 -4 4 C-2 1.625 -2 1.625 0 0 Z " fill="#16323E" transform="translate(53,114)"/>
<path d="M0 0 C1.34529785 0.00773437 1.34529785 0.00773437 2.71777344 0.015625 C3.62237305 0.01691406 4.52697266 0.01820312 5.45898438 0.01953125 C11.7543675 0.11021016 17.39817888 0.75525162 23.21777344 3.328125 C23.21777344 3.988125 23.21777344 4.648125 23.21777344 5.328125 C21.82164278 5.18516609 20.42588035 5.03860942 19.03027344 4.890625 C18.25296875 4.80941406 17.47566406 4.72820312 16.67480469 4.64453125 C14.21777344 4.328125 14.21777344 4.328125 11.99902344 3.828125 C7.98620732 3.10671986 3.97319684 2.96147609 -0.09472656 2.765625 C-0.93068359 2.72244141 -1.76664062 2.67925781 -2.62792969 2.63476562 C-4.67919592 2.52927193 -6.73069136 2.42825185 -8.78222656 2.328125 C-5.96004311 -0.49405845 -3.858827 0.04116082 0 0 Z " fill="#FBF8ED" transform="translate(86.7822265625,78.671875)"/>
<path d="M0 0 C12.66970387 -0.18451025 12.66970387 -0.18451025 18 1 C17.34 1.66 16.68 2.32 16 3 C16.99 3.66 17.98 4.32 19 5 C19 5.66 19 6.32 19 7 C15.19281452 6.27246734 11.44514431 5.38723428 7.6875 4.4375 C6.61886719 4.16808594 5.55023438 3.89867188 4.44921875 3.62109375 C3.64097656 3.41613281 2.83273438 3.21117188 2 3 C2 2.34 2 1.68 2 1 C1.34 0.67 0.68 0.34 0 0 Z " fill="#E2E1D9" transform="translate(154,109)"/>
<path d="M0 0 C1.65 0 3.3 0 5 0 C5 1.98 5 3.96 5 6 C4.01 6 3.02 6 2 6 C2 8.31 2 10.62 2 13 C0.68 13 -0.64 13 -2 13 C-2.19294408 8.17639811 -1.75747614 4.50353262 0 0 Z " fill="#8E938E" transform="translate(115,112)"/>
<path d="M0 0 C3.53571429 0.53571429 3.53571429 0.53571429 5 2 C5.1875 5.4375 5.1875 5.4375 5 9 C4.34 9.66 3.68 10.32 3 11 C2.01 11 1.02 11 0 11 C-1.84651134 7.88401212 -2.38079379 5.61754103 -2 2 C-1.34 1.34 -0.68 0.68 0 0 Z " fill="#C7C8C5" transform="translate(62,132)"/>
<path d="M0 0 C0.33 0 0.66 0 1 0 C1.7903481 10.15293327 2.14727634 19.85101699 1 30 C-1.97 30 -4.94 30 -8 30 C-8 25.71 -8 21.42 -8 17 C-5.69 16.34 -3.38 15.68 -1 15 C-0.67 10.05 -0.34 5.1 0 0 Z M-7 17 C-7 20.96 -7 24.92 -7 29 C-4.69 29 -2.38 29 0 29 C0 25.04 0 21.08 0 17 C-2.31 17 -4.62 17 -7 17 Z " fill="#6D787A" transform="translate(196,61)"/>
<path d="M0 0 C0.33 0 0.66 0 1 0 C1.02505615 0.65073486 1.0501123 1.30146973 1.07592773 1.97192383 C1.19193702 4.91898046 1.31464115 7.8657213 1.4375 10.8125 C1.47681641 11.83666016 1.51613281 12.86082031 1.55664062 13.91601562 C1.59853516 14.89892578 1.64042969 15.88183594 1.68359375 16.89453125 C1.72025146 17.80050049 1.75690918 18.70646973 1.79467773 19.63989258 C1.9208205 22.15048782 1.9208205 22.15048782 3 25 C-1.875 24.125 -1.875 24.125 -3 23 C-3.07226502 21.14712498 -3.0838122 19.29166122 -3.0625 17.4375 C-3.05347656 16.42558594 -3.04445312 15.41367188 -3.03515625 14.37109375 C-3.02355469 13.58863281 -3.01195312 12.80617188 -3 12 C-2.34 12.66 -1.68 13.32 -1 14 C-0.67 9.38 -0.34 4.76 0 0 Z " fill="#D5B242" transform="translate(163,57)"/>
<path d="M0 0 C1.32 0 2.64 0 4 0 C5.4783226 2.95664519 5.06032783 5.74229737 5 9 C3.02 9.99 3.02 9.99 1 11 C-1 9 -1 9 -1.23046875 7.08984375 C-1.11111111 1.11111111 -1.11111111 1.11111111 0 0 Z " fill="#D7D7D2" transform="translate(75,132)"/>
<path d="M0 0 C3.68266103 0.59950296 7.34543185 1.24758891 11 2 C11 2.66 11 3.32 11 4 C10.34 4 9.68 4 9 4 C8.34 6.31 7.68 8.62 7 11 C6.67 9.68 6.34 8.36 6 7 C4.35 6.67 2.7 6.34 1 6 C0.67 4.02 0.34 2.04 0 0 Z " fill="#1F3844" transform="translate(53,86)"/>
<path d="M0 0 C2.64 0 5.28 0 8 0 C6.68938409 4.23429756 5.05643741 8.07407404 3 12 C0.97649676 8.96474514 0.67875982 7.80573798 0.375 4.3125 C0.30023438 3.50425781 0.22546875 2.69601563 0.1484375 1.86328125 C0.09945312 1.24839844 0.05046875 0.63351563 0 0 Z " fill="#E7E4DA" transform="translate(171,78)"/>
<path d="M0 0 C5.94 0 11.88 0 18 0 C18 0.99 18 1.98 18 3 C12.06 3 6.12 3 0 3 C0 2.01 0 1.02 0 0 Z " fill="#B1B6B3" transform="translate(97,137)"/>
<path d="M0 0 C1.67542976 0.28604898 3.34385343 0.61781233 5 1 C5 3.31 5 5.62 5 8 C3.34385343 8.38218767 1.67542976 8.71395102 0 9 C-1 8 -1 8 -1.125 4.5 C-1 1 -1 1 0 0 Z " fill="#606E73" transform="translate(160,197)"/>
<path d="M0 0 C1.67542976 0.28604898 3.34385343 0.61781233 5 1 C5 3.31 5 5.62 5 8 C3.34385343 8.38218767 1.67542976 8.71395102 0 9 C-1 8 -1 8 -1.125 4.5 C-1 1 -1 1 0 0 Z " fill="#5C6B70" transform="translate(60,197)"/>
<path d="M0 0 C0 3.3 0 6.6 0 10 C-0.66 10 -1.32 10 -2 10 C-2.33 9.34 -2.66 8.68 -3 8 C-3.33 8.66 -3.66 9.32 -4 10 C-4.66 10 -5.32 10 -6 10 C-6 7.03 -6 4.06 -6 1 C-2 0 -2 0 0 0 Z " fill="#3C4E56" transform="translate(142,196)"/>
<path d="M0 0 C0 3.3 0 6.6 0 10 C-0.66 10 -1.32 10 -2 10 C-2.33 9.34 -2.66 8.68 -3 8 C-3.33 8.66 -3.66 9.32 -4 10 C-4.66 10 -5.32 10 -6 10 C-6 7.03 -6 4.06 -6 1 C-2 0 -2 0 0 0 Z " fill="#3C4E56" transform="translate(73,196)"/>
<path d="M0 0 C3.89526499 -0.1746354 7.7895219 -0.28096492 11.6875 -0.375 C13.34168945 -0.45041016 13.34168945 -0.45041016 15.02929688 -0.52734375 C23.04450266 -0.67263449 23.04450266 -0.67263449 25.88525391 1.32714844 C29 5.0033179 29 5.0033179 29 7 C27.33388095 7.042721 25.66617115 7.04063832 24 7 C23.67 6.67 23.34 6.34 23 6 C23 4.35 23 2.7 23 1 C15.41 1 7.82 1 0 1 C0 0.67 0 0.34 0 0 Z " fill="#9CA19D" transform="translate(60,124)"/>
<path d="M0 0 C2.12508244 3.18762365 2.5020163 5.26512223 3 9 C3.99 9.33 4.98 9.66 6 10 C1.66726186 10.92844389 -1.66726186 10.92844389 -6 10 C-6 9.01 -6 8.02 -6 7 C-4.35 7 -2.7 7 -1 7 C-1.33 5.02 -1.66 3.04 -2 1 C-1.34 0.67 -0.68 0.34 0 0 Z " fill="#475960" transform="translate(172,100)"/>
<path d="M0 0 C1.65 0 3.3 0 5 0 C5.70074844 3.153368 6 5.72724974 6 9 C5.34 9 4.68 9 4 9 C4 7.68 4 6.36 4 5 C3.34 5 2.68 5 2 5 C2 6.32 2 7.64 2 9 C1.34 9 0.68 9 0 9 C0 6.03 0 3.06 0 0 Z " fill="#46585F" transform="translate(167,197)"/>
<path d="M0 0 C0.66 0 1.32 0 2 0 C2.48798077 6.34375 2.48798077 6.34375 0.1875 9.4375 C-2 11 -2 11 -5 11 C-5 11.66 -5 12.32 -5 13 C-5.99 13 -6.98 13 -8 13 C-7.67 11.35 -7.34 9.7 -7 8 C-5.35 7.67 -3.7 7.34 -2 7 C-1.34 4.69 -0.68 2.38 0 0 Z " fill="#E9E6D9" transform="translate(197,133)"/>
<path d="M0 0 C2.125 0.375 2.125 0.375 4 1 C4 1.99 4 2.98 4 4 C3.01 3.67 2.02 3.34 1 3 C1 4.65 1 6.3 1 8 C1.99 7.67 2.98 7.34 4 7 C3.67 8.32 3.34 9.64 3 11 C0 11 0 11 -2 10 C-2.1953125 3.9453125 -2.1953125 3.9453125 -2 2 C-1.34 1.34 -0.68 0.68 0 0 Z " fill="#626E72" transform="translate(53,196)"/>
<path d="M0 0 C2.33944736 0.28730055 4.6739143 0.61936779 7 1 C6.01 1.495 6.01 1.495 5 2 C5 2.66 5 3.32 5 4 C3.35 4 1.7 4 0 4 C0 7.96 0 11.92 0 16 C1.65 16 3.3 16 5 16 C5 16.33 5 16.66 5 17 C3.02 17 1.04 17 -1 17 C-1.02684679 14.35409986 -1.04676357 11.70846904 -1.0625 9.0625 C-1.07087891 8.30775391 -1.07925781 7.55300781 -1.08789062 6.77539062 C-1.09652441 4.85005687 -1.05224333 2.92464419 -1 1 C-0.67 0.67 -0.34 0.34 0 0 Z " fill="#8B9394" transform="translate(189,42)"/>
<path d="M0 0 C1.65 0 3.3 0 5 0 C5 2.97 5 5.94 5 9 C3.35 9 1.7 9 0 9 C0 6.03 0 3.06 0 0 Z " fill="#40525A" transform="translate(121,197)"/>
<path d="M0 0 C2.25597827 2.25597827 2.96574192 4.04603867 4.125 7 C4.47820312 7.886875 4.83140625 8.77375 5.1953125 9.6875 C6 12 6 12 6 14 C5.34 14 4.68 14 4 14 C4 15.65 4 17.3 4 19 C3.67 19 3.34 19 3 19 C2.49161436 16.96040523 1.99366114 14.91820862 1.5 12.875 C1.2215625 11.73804688 0.943125 10.60109375 0.65625 9.4296875 C0.03546235 6.18533302 -0.12006768 3.29185543 0 0 Z " fill="#F8F4E7" transform="translate(193,119)"/>
<path d="M0 0 C4.87664009 -0.34833144 7.77050005 0.58314288 12 3 C11.01 3.66 10.02 4.32 9 5 C6.525 4.01 6.525 4.01 4 3 C4 8.94 4 14.88 4 21 C3.67 21 3.34 21 3 21 C3.02356567 20.15236084 3.02356567 20.15236084 3.04760742 19.28759766 C3.10987045 16.73349977 3.14896136 14.17956129 3.1875 11.625 C3.21263672 10.73554687 3.23777344 9.84609375 3.26367188 8.9296875 C3.27333984 8.07890625 3.28300781 7.228125 3.29296875 6.3515625 C3.3086792 5.56604004 3.32438965 4.78051758 3.34057617 3.97119141 C3.22818604 3.32069824 3.1157959 2.67020508 3 2 C2.01 1.34 1.02 0.68 0 0 Z " fill="#505A52" transform="translate(145,64)"/>
<path d="M0 0 C5.85272256 0.45020943 10.08220119 3.03839227 15 6 C14.67 6.66 14.34 7.32 14 8 C10.76171886 7.34048737 8.19450407 6.16784772 5.3125 4.5625 C4.52488281 4.13066406 3.73726563 3.69882813 2.92578125 3.25390625 C1 2 1 2 0 0 Z " fill="#263E49" transform="translate(106,85)"/>
<path d="M0 0 C0.99 0 1.98 0 3 0 C3.33 2.97 3.66 5.94 4 9 C3.34 9 2.68 9 2 9 C2 8.34 2 7.68 2 7 C1.34 7 0.68 7 0 7 C0 7.66 0 8.32 0 9 C-0.66 9 -1.32 9 -2 9 C-1.34 6.03 -0.68 3.06 0 0 Z " fill="#405259" transform="translate(130,197)"/>
<path d="M0 0 C1.65 0 3.3 0 5 0 C5 2.97 5 5.94 5 9 C4.34 8.01 3.68 7.02 3 6 C2.67 6.99 2.34 7.98 2 9 C1.34 9 0.68 9 0 9 C0 6.03 0 3.06 0 0 Z " fill="#3A4D54" transform="translate(83,197)"/>
<path d="M0 0 C3.96 0 7.92 0 12 0 C12 0.66 12 1.32 12 2 C9.69 2 7.38 2 5 2 C5 2.66 5 3.32 5 4 C5.66 4.33 6.32 4.66 7 5 C4.625 5.125 4.625 5.125 2 5 C1.34 4.34 0.68 3.68 0 3 C0 2.01 0 1.02 0 0 Z " fill="#F2EFE6" transform="translate(162,135)"/>
<path d="M0 0 C2.31 0.66 4.62 1.32 7 2 C7 2.33 7 2.66 7 3 C4.98177083 3.42317708 2.96354167 3.84635417 0.9453125 4.26953125 C-1.37046549 4.92308838 -1.37046549 4.92308838 -3 8 C-3.66158043 10.04584079 -3.66158043 10.04584079 -4.125 12.1875 C-4.41375 13.445625 -4.7025 14.70375 -5 16 C-5.33 16 -5.66 16 -6 16 C-6.50126942 9.85944957 -5.31436435 6.97154653 -2 2 C-1.34 1.34 -0.68 0.68 0 0 Z " fill="#C8C9C4" transform="translate(147,122)"/>
<path d="M0 0 C0.99 0 1.98 0 3 0 C3 3.3 3 6.6 3 10 C1.68 9.67 0.36 9.34 -1 9 C-1.09765625 2.84765625 -1.09765625 2.84765625 -1 1 C-0.67 0.67 -0.34 0.34 0 0 Z " fill="#DAD9D2" transform="translate(123,96)"/>
<path d="M0 0 C2.31 0 4.62 0 7 0 C5.80100302 3.0831351 4.52299523 6.06279492 3 9 C2.34 9 1.68 9 1 9 C0.67 6.03 0.34 3.06 0 0 Z " fill="#D7D6CD" transform="translate(189,92)"/>
<path d="M0 0 C1.65 0 3.3 0 5 0 C5 0.66 5 1.32 5 2 C4.01 2 3.02 2 2 2 C2 2.99 2 3.98 2 5 C2.99 5.33 3.98 5.66 5 6 C4.01 6 3.02 6 2 6 C2 6.99 2 7.98 2 9 C2.99 9 3.98 9 5 9 C5 9.66 5 10.32 5 11 C3.35 11 1.7 11 0 11 C0 7.37 0 3.74 0 0 Z " fill="#526267" transform="translate(104,196)"/>
<path d="M0 0 C0.66 0 1.32 0 2 0 C2.103125 0.763125 2.20625 1.52625 2.3125 2.3125 C3.0690983 5.27011154 3.81772825 5.99230999 6 8 C7.1875 10.1875 7.1875 10.1875 8 12 C6.35 11.67 4.7 11.34 3 11 C3 10.01 3 9.02 3 8 C2.01 7.67 1.02 7.34 0 7 C0 4.69 0 2.38 0 0 Z " fill="#E7E6DC" transform="translate(53,134)"/>
<path d="M0 0 C1.65 0 3.3 0 5 0 C5 1.65 5 3.3 5 5 C4.01 5.33 3.02 5.66 2 6 C2 6.99 2 7.98 2 9 C1.34 9 0.68 9 0 9 C0 6.03 0 3.06 0 0 Z " fill="#2D424C" transform="translate(152,197)"/>
<path d="M0 0 C0.99 0 1.98 0 3 0 C3.33 2.31 3.66 4.62 4 7 C2.0625 7.5625 2.0625 7.5625 0 8 C-1 7 -1 7 -1.125 4 C-1 1 -1 1 0 0 Z " fill="#263F49" transform="translate(150,134)"/>
<path d="M0 0 C1.79093191 -0.08086147 3.58289628 -0.13912702 5.375 -0.1875 C6.87160156 -0.23970703 6.87160156 -0.23970703 8.3984375 -0.29296875 C9.25695312 -0.19628906 10.11546875 -0.09960938 11 0 C13 3 13 3 13 7 C12.34 7 11.68 7 11 7 C10.67 5.35 10.34 3.7 10 2 C6.7 2 3.4 2 0 2 C0 1.34 0 0.68 0 0 Z " fill="#43545C" transform="translate(133,94)"/>
<path d="M0 0 C0.33 0 0.66 0 1 0 C1 8.91 1 17.82 1 27 C0.67 27 0.34 27 0 27 C0 24.36 0 21.72 0 19 C-0.66 19 -1.32 19 -2 19 C-1.84660156 18.49984375 -1.69320312 17.9996875 -1.53515625 17.484375 C-0.80542604 14.09672234 -0.63643523 10.70038481 -0.4375 7.25 C-0.39431641 6.55261719 -0.35113281 5.85523437 -0.30664062 5.13671875 C-0.20110404 3.42468078 -0.1001009 1.71236439 0 0 Z " fill="#092637" transform="translate(197,78)"/>
<path d="M0 0 C1.2065625 0.0309375 1.2065625 0.0309375 2.4375 0.0625 C2.4375 1.0525 2.4375 2.0425 2.4375 3.0625 C1.4475 2.7325 0.4575 2.4025 -0.5625 2.0625 C-0.5625 3.7125 -0.5625 5.3625 -0.5625 7.0625 C0.4275 6.7325 1.4175 6.4025 2.4375 6.0625 C2.4375 7.0525 2.4375 8.0425 2.4375 9.0625 C0.7875 9.0625 -0.8625 9.0625 -2.5625 9.0625 C-3.92873674 6.33002652 -3.690926 4.08051098 -3.5625 1.0625 C-2.5625 0.0625 -2.5625 0.0625 0 0 Z " fill="#42535A" transform="translate(199.5625,196.9375)"/>
<path d="M0 0 C-0.33 0.99 -0.66 1.98 -1 3 C-13.87 2.505 -13.87 2.505 -27 2 C-27 1.67 -27 1.34 -27 1 C-23.4375865 0.83144992 -19.87505676 0.66549228 -16.3125 0.5 C-15.30509766 0.45230469 -14.29769531 0.40460938 -13.25976562 0.35546875 C-11.79506836 0.28779297 -11.79506836 0.28779297 -10.30078125 0.21875 C-9.40528564 0.17685547 -8.50979004 0.13496094 -7.5871582 0.09179688 C-5.05557612 0.00197194 -2.53292812 -0.01596803 0 0 Z " fill="#B2B5B2" transform="translate(161,88)"/>
<path d="M0 0 C0.66 0 1.32 0 2 0 C2.33 0.66 2.66 1.32 3 2 C3.66 1.34 4.32 0.68 5 0 C5 2.97 5 5.94 5 9 C4.34 9 3.68 9 3 9 C2.67 8.34 2.34 7.68 2 7 C1.34 7.66 0.68 8.32 0 9 C0 6.03 0 3.06 0 0 Z " fill="#1C343F" transform="translate(189,197)"/>
<path d="M0 0 C4.18423892 3.50897269 8.19588166 7.08060535 12 11 C9.73828125 11.2734375 9.73828125 11.2734375 7 11 C4.98046875 9.1015625 4.98046875 9.1015625 3.1875 6.625 C2.58292969 5.81289062 1.97835937 5.00078125 1.35546875 4.1640625 C0 2 0 2 0 0 Z " fill="#999D94" transform="translate(64,111)"/>
<path d="M0 0 C2.12508244 3.18762365 2.5020163 5.26512223 3 9 C2.01 9.33 1.02 9.66 0 10 C-0.66 10.99 -1.32 11.98 -2 13 C-1.85915204 11.20793453 -1.71216299 9.41635083 -1.5625 7.625 C-1.48128906 6.62726563 -1.40007813 5.62953125 -1.31640625 4.6015625 C-1 2 -1 2 0 0 Z " fill="#DDDBD1" transform="translate(53,89)"/>
<path d="M0 0 C0.66 0 1.32 0 2 0 C2.33 3.3 2.66 6.6 3 10 C1.68 10 0.36 10 -1 10 C-0.67 6.7 -0.34 3.4 0 0 Z " fill="#E0DFD8" transform="translate(183,167)"/>
<path d="M0 0 C2.39073445 3.82517513 2.55966552 7.59665524 3 12 C1.68 12 0.36 12 -1 12 C-1.08159574 7.83861737 -0.98248524 4.0527516 0 0 Z " fill="#D8D8D3" transform="translate(65,165)"/>
<path d="M0 0 C1.18613892 0.07069702 1.18613892 0.07069702 2.39624023 0.14282227 C3.67724609 0.21533203 3.67724609 0.21533203 4.98413086 0.28930664 C5.88196289 0.34538086 6.77979492 0.40145508 7.70483398 0.45922852 C8.6065332 0.51143555 9.50823242 0.56364258 10.43725586 0.61743164 C12.67259948 0.74753101 14.90754288 0.88250788 17.14233398 1.02172852 C17.14233398 1.35172852 17.14233398 1.68172852 17.14233398 2.02172852 C15.88936523 2.04750977 14.63639648 2.07329102 13.34545898 2.09985352 C11.69438275 2.15614021 10.04334243 2.21348742 8.39233398 2.27172852 C7.56733398 2.2859082 6.74233398 2.30008789 5.89233398 2.31469727 C0.83120529 2.48883663 0.83120529 2.48883663 -3.43579102 5.06860352 C-3.90500977 5.71313477 -4.37422852 6.35766602 -4.85766602 7.02172852 C-2.62649348 0.03072124 -2.62649348 0.03072124 0 0 Z " fill="#C0C1BE" transform="translate(60.857666015625,124.978271484375)"/>
<path d="M0 0 C0.66 0.33 1.32 0.66 2 1 C-1.96 4.96 -5.92 8.92 -10 13 C-10.66 12.67 -11.32 12.34 -12 12 C-8.57833482 7.29521038 -4.42094803 3.72346836 0 0 Z " fill="#273E46" transform="translate(53,32)"/>
<path d="M0 0 C6.20970773 -0.33266291 10.28264895 0.54970669 16 3 C16 3.66 16 4.32 16 5 C12.34056353 4.31092878 8.77558041 3.43178734 5.1875 2.4375 C4.21167969 2.16808594 3.23585937 1.89867188 2.23046875 1.62109375 C1.49441406 1.41613281 0.75835937 1.21117188 0 1 C0 0.67 0 0.34 0 0 Z " fill="#647074" transform="translate(157,111)"/>
<path d="M0 0 C2 3 2 3 3 6 C5.00016466 7.20882096 5.00016466 7.20882096 7 8 C5.1875 9.0625 5.1875 9.0625 3 10 C2.01 9.67 1.02 9.34 0 9 C-1.125 2.25 -1.125 2.25 0 0 Z " fill="#D5D5CE" transform="translate(175,100)"/>
<path d="M0 0 C0.33 0.66 0.66 1.32 1 2 C1.66 2 2.32 2 3 2 C3.33 1.34 3.66 0.68 4 0 C4.625 2.375 4.625 2.375 5 5 C4.34 5.66 3.68 6.32 3 7 C3 6.34 3 5.68 3 5 C2.34 5 1.68 5 1 5 C0.67 5.66 0.34 6.32 0 7 C-1 6 -1 6 -1.125 3.5 C-1 1 -1 1 0 0 Z " fill="#DEDDD7" transform="translate(54,198)"/>
<path d="M0 0 C0 0.66 0 1.32 0 2 C-9.41002278 1.03644647 -9.41002278 1.03644647 -14 0 C-9.4440593 -3.09803967 -4.9275821 -1.64252737 0 0 Z " fill="#EEEBDF" transform="translate(110,82)"/>
<path d="M0 0 C0.99 0.33 1.98 0.66 3 1 C3 1.99 3 2.98 3 4 C-1.51718381 5.36884358 -4.58774263 4.47075246 -9 3 C-8.67 2.34 -8.34 1.68 -8 1 C-5.36 1.33 -2.72 1.66 0 2 C0 1.34 0 0.68 0 0 Z " fill="#2D424C" transform="translate(178,29)"/>
<path d="M0 0 C2.97 0 5.94 0 9 0 C9 0.99 9 1.98 9 3 C6.03 3 3.06 3 0 3 C0 2.01 0 1.02 0 0 Z " fill="#E3E2DA" transform="translate(162,143)"/>
<path d="M0 0 C4.29 0 8.58 0 13 0 C13 0.33 13 0.66 13 1 C9.7 1.33 6.4 1.66 3 2 C2.34 3.98 1.68 5.96 1 8 C0.67 8 0.34 8 0 8 C0 5.36 0 2.72 0 0 Z " fill="#082836" transform="translate(176,119)"/>
<path d="M0 0 C0.33 0 0.66 0 1 0 C1 3.3 1 6.6 1 10 C-0.32 9.67 -1.64 9.34 -3 9 C-2.44271087 5.65626525 -1.64826111 2.96687001 0 0 Z " fill="#CDA432" transform="translate(178,85)"/>
<path d="M0 0 C0.33 0 0.66 0 1 0 C1.33 5.61 1.66 11.22 2 17 C-0.97 17 -3.94 17 -7 17 C-7 16.67 -7 16.34 -7 16 C-5.02 15.67 -3.04 15.34 -1 15 C-0.67 10.05 -0.34 5.1 0 0 Z " fill="#5F6D71" transform="translate(196,61)"/>
<path d="M0 0 C1.32 0.33 2.64 0.66 4 1 C3.34 1 2.68 1 2 1 C2 1.66 2 2.32 2 3 C2.66 3 3.32 3 4 3 C4 3.66 4 4.32 4 5 C3.34 5 2.68 5 2 5 C2 5.99 2 6.98 2 8 C2.66 8.33 3.32 8.66 4 9 C2.68 9 1.36 9 0 9 C0 6.03 0 3.06 0 0 Z " fill="#374A52" transform="translate(91,197)"/>
<path d="M0 0 C-0.33 0.66 -0.66 1.32 -1 2 C-5.95 1.67 -10.9 1.34 -16 1 C-16 0.67 -16 0.34 -16 0 C-10.31302429 -0.91397824 -5.68697571 -0.91397824 0 0 Z " fill="#364A53" transform="translate(167,92)"/>
<path d="M0 0 C1.32 0 2.64 0 4 0 C3.67 0.66 3.34 1.32 3 2 C2.34 1.67 1.68 1.34 1 1 C1.66 1.5775 2.32 2.155 3 2.75 C5 5 5 5 5 9 C3.35 9 1.7 9 0 9 C0.33 8.34 0.66 7.68 1 7 C1.66 7.33 2.32 7.66 3 8 C2.505 7.4225 2.01 6.845 1.5 6.25 C0 4 0 4 0 0 Z " fill="#2A3E47" transform="translate(145,197)"/>
<path d="M0 0 C1.65 0 3.3 0 5 0 C5 1.65 5 3.3 5 5 C3.35 5 1.7 5 0 5 C0 3.35 0 1.7 0 0 Z " fill="#B0B2A8" transform="translate(115,112)"/>
<path d="M0 0 C0.33 0.66 0.66 1.32 1 2 C1.66 2 2.32 2 3 2 C3 4.31 3 6.62 3 9 C2.01 9 1.02 9 0 9 C-1.125 2.25 -1.125 2.25 0 0 Z " fill="#777240" transform="translate(194,95)"/>
<path d="M0 0 C4.875 0.875 4.875 0.875 6 2 C6.04092937 4.33297433 6.04241723 6.66705225 6 9 C5.67 9 5.34 9 5 9 C4.67 6.69 4.34 4.38 4 2 C0.9254644 2.7763932 0.9254644 2.7763932 -1 5 C-0.67 3.35 -0.34 1.7 0 0 Z " fill="#E0E0DA" transform="translate(149,132)"/>
<path d="M0 0 C0.66 0.66 1.32 1.32 2 2 C1.67 2.66 1.34 3.32 1 4 C-4.75 2.25 -4.75 2.25 -7 0 C-4.29393021 -1.35303489 -2.8671629 -0.7884698 0 0 Z " fill="#DAD9CF" transform="translate(115,84)"/>
<path d="M0 0 C0.99 0.33 1.98 0.66 3 1 C3 2.65 3 4.3 3 6 C1.68 6 0.36 6 -1 6 C-1.042721 4.33388095 -1.04063832 2.66617115 -1 1 C-0.67 0.67 -0.34 0.34 0 0 Z " fill="#2C434D" transform="translate(76,134)"/>
<path d="M0 0 C0.66 0 1.32 0 2 0 C2.25 3.3125 2.25 3.3125 2 7 C0.68 7.99 -0.64 8.98 -2 10 C-1.34 6.7 -0.68 3.4 0 0 Z " fill="#FAF6E9" transform="translate(197,133)"/>
<path d="M0 0 C0.33 0.99 0.66 1.98 1 3 C-3.455 3.495 -3.455 3.495 -8 4 C-8 3.01 -8 2.02 -8 1 C-5.07175348 0.02391783 -3.04386724 -0.08226668 0 0 Z " fill="#E2DED1" transform="translate(65,83)"/>
<path d="M0 0 C0.33 0 0.66 0 1 0 C1.0825 0.78375 1.165 1.5675 1.25 2.375 C1.72806339 5.14749104 1.72806339 5.14749104 4.0625 6.3125 C4.701875 6.539375 5.34125 6.76625 6 7 C5.01 7 4.02 7 3 7 C3 7.66 3 8.32 3 9 C1.68 8.34 0.36 7.68 -1 7 C-0.67 4.69 -0.34 2.38 0 0 Z " fill="#D2D0C6" transform="translate(48,119)"/>
<path d="M0 0 C1.65 0 3.3 0 5 0 C3.515 3.96 3.515 3.96 2 8 C0.23537317 4.91190305 0 3.76687864 0 0 Z " fill="#DFDED7" transform="translate(58,89)"/>
<path d="M0 0 C0 0.99 0 1.98 0 3 C-2.97 2.67 -5.94 2.34 -9 2 C-9 1.34 -9 0.68 -9 0 C-2.25 -1.125 -2.25 -1.125 0 0 Z " fill="#939B9B" transform="translate(179,29)"/>
<path d="M0 0 C2.0625 0.4375 2.0625 0.4375 4 1 C4 1.99 4 2.98 4 4 C3.01 3.67 2.02 3.34 1 3 C0.67 4.98 0.34 6.96 0 9 C-0.33 9 -0.66 9 -1 9 C-1.09765625 2.84765625 -1.09765625 2.84765625 -1 1 C-0.67 0.67 -0.34 0.34 0 0 Z " fill="#3B4D55" transform="translate(53,196)"/>
<path d="M0 0 C0 3 0 3 -2 6 C-5.625 6.1875 -5.625 6.1875 -9 6 C-8.67 5.34 -8.34 4.68 -8 4 C-7.01 4.33 -6.02 4.66 -5 5 C-5 4.34 -5 3.68 -5 3 C-2.5 1.375 -2.5 1.375 0 0 Z " fill="#E0C16B" transform="translate(197,141)"/>
<path d="M0 0 C0.66 0 1.32 0 2 0 C2.33 1.65 2.66 3.3 3 5 C1.68 5.33 0.36 5.66 -1 6 C-1.042721 4.33388095 -1.04063832 2.66617115 -1 1 C-0.67 0.67 -0.34 0.34 0 0 Z " fill="#213944" transform="translate(63,134)"/>
<path d="M0 0 C2 3.75 2 3.75 2 6 C1.34 6 0.68 6 0 6 C0 7.65 0 9.3 0 11 C-0.33 11 -0.66 11 -1 11 C-1.33 7.7 -1.66 4.4 -2 1 C-1.34 0.67 -0.68 0.34 0 0 Z " fill="#D5D1C0" transform="translate(197,127)"/>
<path d="M0 0 C1.98 0 3.96 0 6 0 C6.33 0.99 6.66 1.98 7 3 C4.69 3 2.38 3 0 3 C0 2.01 0 1.02 0 0 Z " fill="#EAE8DF" transform="translate(164,125)"/>
<path d="M0 0 C-1.38877354 3.35620271 -2.91677965 5.07298728 -6 7 C-6.66 7 -7.32 7 -8 7 C-6.47663111 3.31852519 -4.31953005 0 0 0 Z " fill="#D0D1CC" transform="translate(60,115)"/>
<path d="M0 0 C0.99 0 1.98 0 3 0 C2.67 2.97 2.34 5.94 2 9 C0.02 9 -1.96 9 -4 9 C-4 8.67 -4 8.34 -4 8 C-2.35 8 -0.7 8 1 8 C0.67 5.36 0.34 2.72 0 0 Z " fill="#D0D1CC" transform="translate(74,181)"/>
<path d="M0 0 C0.33 0.66 0.66 1.32 1 2 C1.66 2 2.32 2 3 2 C3 2.99 3 3.98 3 5 C2.34 5 1.68 5 1 5 C0.67 5.66 0.34 6.32 0 7 C-1 6 -1 6 -1.125 3.5 C-1 1 -1 1 0 0 Z " fill="#D7D8D3" transform="translate(199,198)"/>
<path d="M0 0 C3.3 0.33 6.6 0.66 10 1 C10 1.33 10 1.66 10 2 C7.03 2 4.06 2 1 2 C0.67 2.66 0.34 3.32 0 4 C0 2.68 0 1.36 0 0 Z " fill="#CCCBC5" transform="translate(132,92)"/>
<path d="M0 0 C0.99 0 1.98 0 3 0 C3 1.98 3 3.96 3 6 C2.01 6 1.02 6 0 6 C0 4.02 0 2.04 0 0 Z " fill="#223A44" transform="translate(152,74)"/>
<path d="M0 0 C1.65 0 3.3 0 5 0 C4.67 1.32 4.34 2.64 4 4 C2.68 4 1.36 4 0 4 C0 2.68 0 1.36 0 0 Z " fill="#5E6D72" transform="translate(152,197)"/>
<path d="M0 0 C1.32 0.66 2.64 1.32 4 2 C1.525 3.485 1.525 3.485 -1 5 C-1.99 4.34 -2.98 3.68 -4 3 C-2.68 2.01 -1.36 1.02 0 0 Z " fill="#2B424C" transform="translate(56,119)"/>
<path d="M0 0 C0.66 0 1.32 0 2 0 C2.6875 2.8125 2.6875 2.8125 3 6 C2.01 6.99 1.02 7.98 0 9 C0 6.03 0 3.06 0 0 Z " fill="#D4D4CE" transform="translate(192,115)"/>
<path d="M0 0 C0 0.66 0 1.32 0 2 C-1.98 2.33 -3.96 2.66 -6 3 C-6.33 2.01 -6.66 1.02 -7 0 C-3.86650268 -1.04449911 -3.01031744 -0.93423645 0 0 Z " fill="#46585F" transform="translate(80,83)"/>
<path d="M0 0 C0.66 0.66 1.32 1.32 2 2 C-0.31 2.33 -2.62 2.66 -5 3 C-5 2.34 -5 1.68 -5 1 C-5.66 0.67 -6.32 0.34 -7 0 C-3.85179059 -1.04940314 -3.00659136 -1.066855 0 0 Z " fill="#F0E7CB" transform="translate(80,80)"/>
</svg>
